<svg id="Layer_1" data-name="Layer 1" xmlns="http://www.w3.org/2000/svg" viewBox="0 0 20 20"><defs><style>.cls-1{fill:#fff;}.cls-2{fill:#a77cc2;}.cls-3{fill:#d9c7e5;}.cls-4{fill:#e0cfe8;}.cls-5{fill:#d3badf;}.cls-6{fill:#dccce7;}.cls-7{fill:#be9dd1;}.cls-8{fill:#d6f2f9;}.cls-9{fill:#bbc2e3;}.cls-10{fill:#b6b6dd;}.cls-11{fill:#b5b4dc;}.cls-12{fill:#d490cb;}.cls-13{fill:#bcc7e5;}.cls-14{fill:#bec9e6;}.cls-15{fill:#c0cee8;}.cls-16{fill:#fffeff;}.cls-17{fill:#feffff;}.cls-18{fill:#fdfdfe;}.cls-19{fill:#fefdfe;}.cls-20{fill:#e7b2db;}.cls-21{fill:#efc4e3;}.cls-22{fill:#e9b6dd;}.cls-23{fill:#e5add9;}</style></defs><title>audio</title><path class="cls-1" d="M881.46,457.88V810.23H183.15q0-174.14,0-348.28c.78-.32,1.07.14,1.14.79.22,2.31.41,4.62.6,6.93.26,3.08.49,6.17.8,9.25.27,2.69.63,5.37.94,8.06.46,3.94.89,7.88,1.39,11.81.48,3.74,1,7.47,1.55,11.2.46,3.25.88,6.51,1.39,9.76q1.28,8.16,2.64,16.31c1,6.2,2,12.4,3.17,18.57q2.08,11.26,4.38,22.48c2,9.75,4.07,19.49,6.26,29.2q3.44,15.28,7.65,30.37a329.91,329.91,0,0,0,12.37,37.45c2.8,6.81,5.88,13.49,10.33,19.44a6.61,6.61,0,0,1,1.12,2.62c1.11,5.69,2.12,11.4,3.21,17.09,1.67,8.73,3.39,17.45,5.06,26.19a24.62,24.62,0,0,0,3.27,9.23c4.18,6.33,10.14,9.64,17.62,10.36a4.22,4.22,0,0,0,1.29.5c2.3.06,4.6,0,6.9,0l1.69,0a4.38,4.38,0,0,0,1.3.48c2.29.06,4.59,0,6.89.06l1.11,0a4.26,4.26,0,0,0,1.3.49c2.3.06,4.6,0,6.9,0l2.26.06a4.52,4.52,0,0,0,1.31.47c1.91.05,3.82,0,5.73,0,2.19.25,4.44-.2,6.65.58.29,1,.59,1.88.84,2.81a58.23,58.23,0,0,0,14.2,25,62.61,62.61,0,0,0,21.68,14.8,60.9,60.9,0,0,0,17.63,4.56,5.94,5.94,0,0,0,1.62.5q6.24.06,12.48,0a5.94,5.94,0,0,0,1.62-.5c1.81-.27,3.65-.43,5.44-.82a66.63,66.63,0,0,0,21.19-8.43A60.92,60.92,0,0,0,423.66,786a57,57,0,0,0,12.59-29.19,54.68,54.68,0,0,0-.35-17c-1.89-10-4-19.89-6-29.84q-2.74-13.64-5.45-27.29t-5.51-27.57q-2.76-13.79-5.53-27.57t-5.51-27.57q-2.76-13.78-5.54-27.57c-2-10.14-4-20.28-6.06-30.42s-4.14-20.46-6.19-30.69a58.81,58.81,0,0,0-19.51-33.49,63.62,63.62,0,0,0-26.83-13.86,33.29,33.29,0,0,0-8.27-1.39,5.93,5.93,0,0,0-1.59-.48q-6-.07-12,0a6,6,0,0,0-1.59.48,29.71,29.71,0,0,0-7.72,1.23c-16.85,4.12-30.18,13.28-39.41,28a55.69,55.69,0,0,0-7.87,39.82c1.33,8,3.16,15.93,4.76,23.89.64,3.2,1.26,6.41,1.9,9.69-1,.49-1.87.94-2.75,1.32-2.22,1-4.45,1.9-6.67,2.85-4.45,1.91-8.88,3.84-13.35,5.71-.75.31-1.5.91-2.59.51-.72-3.54-1.5-7.13-2.19-10.73-1.45-7.6-2.92-15.19-4.28-22.8-1.13-6.38-2.13-12.78-3.16-19.17-.91-5.63-1.83-11.26-2.64-16.9-.73-5.07-1.33-10.16-1.95-15.25q-.88-7.2-1.68-14.4c-.25-2.21-.44-4.43-.65-6.64-.32-3.46-.81-6.92-.92-10.4-.52-16.27-.27-32.54.58-48.79,0-.19,0-.39,0-.58.32-3.47.64-6.93.95-10.4.26-3,.47-6,.75-9q.28-3,.69-6.05.69-5,1.48-10c.67-4.3,1.27-8.61,2.07-12.88a319.39,319.39,0,0,1,7.78-32.42,255.91,255.91,0,0,1,13.24-35.31,340.71,340.71,0,0,1,17.06-32,290.48,290.48,0,0,1,38.6-50.76c4.82-5,10-9.71,15-14.52,1.26-1.2,2.68-2.24,3.93-3.45a3.29,3.29,0,0,1,3.2-.87c.38.08.75.2,1.13.28,5.41,1,10.81,2.12,16.23,3.11,5.23,1,10.47,1.84,15.71,2.7q6.29,1,12.6,2c3.35.49,6.7.92,10.05,1.37l16.09,2.14c1.28.91,2.73.51,4.13.53l5.77.62a4.52,4.52,0,0,0,1.28.5c1.13.08,2.28,0,3.41,0l1.1.06c1.29.89,2.74.51,4.14.49l7.5.66a4.6,4.6,0,0,0,1.3.48c1.33.07,2.66,0,4,0l8.08.65a6.42,6.42,0,0,0,1.59.49c1.62.07,3.24,0,4.86,0l8.68.6a4.19,4.19,0,0,0,1.29.5c2.3.06,4.6,0,6.9.05l1.12,0a4.19,4.19,0,0,0,1.3.49c2.68.05,5.37,0,8.05,0l2.27.06a4.34,4.34,0,0,0,1.31.47c3.26.05,6.53,0,9.79.05l2.86.05a4.37,4.37,0,0,0,1.32.47c5.2,0,10.39,0,15.59.06l1.11.08c.88.88,2,.53,3,.53q21.41,0,42.82,0a15.42,15.42,0,0,0,2-.05,3.46,3.46,0,0,0,1-.5l1.12-.1c4.8,0,9.6,0,14.41-.06a4.65,4.65,0,0,0,1.33-.44l3.44-.05c3.26,0,6.53,0,9.79-.05a4.36,4.36,0,0,0,1.31-.47l2.26,0c2.69,0,5.38,0,8.06,0a4.21,4.21,0,0,0,1.3-.49l1.11,0c2.3,0,4.6,0,6.89-.06a4.28,4.28,0,0,0,1.3-.49l1.11,0c1.91,0,3.82,0,5.73,0a4.35,4.35,0,0,0,1.3-.49l1.11,0c1.53,0,3.05,0,4.57,0a4.51,4.51,0,0,0,1.3-.48l1.11,0c1.43,0,2.86,0,4.28,0a6.54,6.54,0,0,0,1.58-.5l8.07-.68c1.59,0,3.22.44,4.7-.51.85-.07,1.7-.12,2.55-.21l9-1c1.4,0,2.84.37,4.13-.52.68,0,1.36,0,2-.14,3.83-.51,7.66-1.05,11.49-1.55s7.49-.85,11.22-1.4c5.74-.84,11.46-1.75,17.18-2.7,7.53-1.25,15.06-2.52,22.56-3.9a4.61,4.61,0,0,1,4.51,1.13c1.81,1.75,3.77,3.34,5.6,5.06a288.13,288.13,0,0,1,26.61,28.38,299.26,299.26,0,0,1,18.26,25.13,319.84,319.84,0,0,1,23.47,42.73A258.22,258.22,0,0,1,825,341.28c1.7,6.85,3.17,13.75,4.53,20.68,1,5.21,1.74,10.49,2.52,15.75.48,3.25.87,6.51,1.25,9.78.54,4.7,1.11,9.41,1.51,14.13.47,5.49.85,11,1.12,16.5.3,6.09.53,12.19.58,18.29.06,6.38.39,12.78-.38,19.15-.34,2.78-.37,5.61-.79,8.37-1.09,7.26-2.1,14.55-3.51,21.75q-3.1,15.79-6.75,31.47c-2.51,10.73-5.28,21.41-8.1,32.07-2.48,9.35-5.18,18.64-7.8,27.94a8,8,0,0,1-.72,1.42c-3.36-1.06-29.32-12.3-31.14-13.49a13.94,13.94,0,0,1,.13-1.91c2-10,4-19.89,6-29.85a57.55,57.55,0,0,0-15.7-52.09,63.46,63.46,0,0,0-30.39-17.32,32.88,32.88,0,0,0-8.28-1.39,5.93,5.93,0,0,0-1.59-.48q-6-.07-12,0a5.94,5.94,0,0,0-1.59.48,43.47,43.47,0,0,0-11.35,2.21,62.9,62.9,0,0,0-30,19,55.35,55.35,0,0,0-12.74,24.15c-1.94,8.38-3.49,16.84-5.2,25.27q-2.78,13.78-5.53,27.57-2.46,12.22-4.93,24.44-2.78,13.78-5.55,27.57T633.22,640q-3,15.21-6.06,30.42-3.1,15.49-6.22,31c-1.85,9.19-3.77,18.37-5.53,27.58-1,5.4-2.31,10.75-2.83,16.27a53,53,0,0,0,.4,12.43,56.76,56.76,0,0,0,7.24,20.7,60.08,60.08,0,0,0,13.14,15.77,63.76,63.76,0,0,0,19.74,11.43A58.44,58.44,0,0,0,668,809.08a5.82,5.82,0,0,0,1.59.49q6,.06,12,0a5.8,5.8,0,0,0,1.59-.49c1.43-.19,2.88-.34,4.3-.59A63.62,63.62,0,0,0,706.37,802a62.9,62.9,0,0,0,17-13,55.61,55.61,0,0,0,11.1-17.22c1.07-2.69,1.92-5.47,2.81-8.22.56-1.76.76-2,2.6-2.12,1.45-.09,2.9-.1,4.35-.15,2.29,0,4.59,0,6.88-.06a4.42,4.42,0,0,0,1.3-.47l11-.62c.58,0,1.16,0,1.74-.07,5.12-.34,10.23-.7,15.34-1a23.17,23.17,0,0,0,10-2.8c5.8-3.25,9.64-8,10.91-14.61q1.45-7.55,2.91-15.1,2.88-15,5.77-29.9a6.75,6.75,0,0,1,1.23-3.21,55.66,55.66,0,0,0,5.74-9.07,241.91,241.91,0,0,0,11.41-24.8q7.43-18.46,13.57-37.39,5.79-17.81,11.17-35.74c2.76-9.17,5.39-18.38,7.81-27.65,3.25-12.45,6.37-24.93,9.29-37.46,2.21-9.51,4.11-19.1,6-28.68,1.18-6.07,2-12.2,3-18.31a109,109,0,0,0,1.69-16.44Z" transform="translate(-183.15 -86.92)"/><path class="cls-2" d="M729.14,462.53a32.88,32.88,0,0,1,8.28,1.39,63.46,63.46,0,0,1,30.39,17.32,57.55,57.55,0,0,1,15.7,52.09c-2,10-4,19.9-6,29.85a13.94,13.94,0,0,0-.13,1.91c1.82,1.19,27.77,12.43,31.14,13.49a8,8,0,0,0,.72-1.42c2.62-9.31,5.33-18.6,7.8-27.94,2.82-10.66,5.59-21.33,8.1-32.07q3.67-15.67,6.75-31.47c1.41-7.2,2.43-14.49,3.51-21.75.41-2.77.45-5.59.79-8.37.77-6.37.44-12.77.38-19.15-.05-6.1-.29-12.2-.58-18.29-.27-5.51-.65-11-1.12-16.5-.4-4.72-1-9.42-1.51-14.13-.37-3.26-.76-6.53-1.25-9.78-.78-5.26-1.5-10.53-2.52-15.75-1.36-6.92-2.83-13.83-4.53-20.68a258.22,258.22,0,0,0-15.17-44.14,319.84,319.84,0,0,0-23.47-42.73,299.26,299.26,0,0,0-18.26-25.13,288.13,288.13,0,0,0-26.61-28.38c-1.83-1.73-3.8-3.31-5.6-5.06a4.61,4.61,0,0,0-4.51-1.13c-7.51,1.38-15,2.65-22.56,3.9-5.72,1-11.45,1.86-17.18,2.7-3.73.55-7.48.91-11.22,1.4s-7.66,1-11.49,1.55c-.67.09-1.35.09-2,.14-1.39.05-2.85-.38-4.13.52l-9,1c-.85.09-1.7.14-2.55.21-1,0-2.09,0-3.12,0a7.38,7.38,0,0,0-1.58.48l-8.07.68c-1.43,0-2.86,0-4.29,0a6.54,6.54,0,0,0-1.58.5l-1.11,0c-1.43,0-2.86,0-4.29,0a6.7,6.7,0,0,0-1.59.48l-1.11,0c-1.81,0-3.63,0-5.44.06a6.55,6.55,0,0,0-1.59.48l-1.11,0c-2.1,0-4.21,0-6.31.06a8.75,8.75,0,0,0-1.88.49l-1.11,0c-2.59,0-5.17,0-7.76.07a6.41,6.41,0,0,0-1.6.47l-2.26,0c-3.17,0-6.33,0-9.5.06a6.31,6.31,0,0,0-1.6.47l-3.44.05c-4.71,0-9.42,0-14.13,0a6.29,6.29,0,0,0-1.61.46l-1.12.1c-.77,0-1.54-.07-2.31-.07H517.45c-.77,0-1.54,0-2.31.07l-1.11-.08a6.25,6.25,0,0,0-1.61-.46c-5.1-.05-10.2-.05-15.3-.07l-2.86-.05a6.31,6.31,0,0,0-1.6-.47c-3.17-.06-6.33,0-9.5-.06l-2.27-.05a8.72,8.72,0,0,0-1.89-.48c-2.49-.07-5-.05-7.46-.07l-1.12,0a6.46,6.46,0,0,0-1.6-.48c-2.2-.07-4.4-.06-6.6-.07l-8.68-.6a6.42,6.42,0,0,0-1.59-.49c-1.62-.07-3.24,0-4.86,0l-8.08-.65a4.62,4.62,0,0,0-1.29-.48c-1.33-.07-2.66,0-4,0l-7.5-.66c-1.3-.86-2.74-.44-4.14-.5l-1.1-.06a4.77,4.77,0,0,0-1.29-.49c-1.13-.08-2.27,0-3.41-.06l-5.77-.62c-1.28-.89-2.74-.47-4.13-.53l-16.09-2.14c-3.35-.45-6.71-.88-10.05-1.37q-6.31-.93-12.6-2c-5.24-.87-10.48-1.75-15.71-2.7-5.42-1-10.82-2.07-16.23-3.11-.38-.07-.75-.2-1.13-.28a3.29,3.29,0,0,0-3.2.87c-1.25,1.21-2.67,2.25-3.93,3.45-5,4.81-10.23,9.49-15,14.52a290.48,290.48,0,0,0-38.6,50.76,340.71,340.71,0,0,0-17.06,32,255.91,255.91,0,0,0-13.24,35.31,319.39,319.39,0,0,0-7.78,32.42c-.8,4.27-1.41,8.58-2.07,12.88q-.78,5-1.48,10-.42,3-.69,6.05c-.28,3-.48,6-.75,9-.3,3.47-.63,6.93-.95,10.4,0,.19,0,.39,0,.58-.85,16.26-1.1,32.52-.58,48.79.11,3.47.6,6.93.92,10.4.21,2.21.4,4.43.65,6.64q.81,7.2,1.68,14.4c.62,5.09,1.22,10.18,1.95,15.25.81,5.64,1.74,11.27,2.64,16.9,1,6.39,2,12.79,3.16,19.17,1.35,7.61,2.82,15.21,4.28,22.8.69,3.6,1.46,7.18,2.19,10.73,1.09.4,1.83-.2,2.59-.51,4.46-1.87,8.9-3.8,13.35-5.71,2.22-1,4.45-1.89,6.67-2.85.88-.38,1.73-.83,2.75-1.32-.64-3.28-1.26-6.49-1.9-9.69-1.6-8-3.43-15.88-4.76-23.89a55.69,55.69,0,0,1,7.87-39.82c9.23-14.77,22.56-23.93,39.41-28a29.7,29.7,0,0,1,7.72-1.23l15.17,0a33.29,33.29,0,0,1,8.27,1.39,63.62,63.62,0,0,1,26.83,13.86,58.81,58.81,0,0,1,19.51,33.49c2.05,10.23,4.14,20.46,6.19,30.69s4,20.28,6.06,30.42q2.76,13.79,5.54,27.57t5.51,27.57q2.76,13.79,5.53,27.57t5.51,27.57q2.73,13.65,5.45,27.29c2,9.95,4.1,19.88,6,29.84a54.68,54.68,0,0,1,.35,17A57,57,0,0,1,423.66,786a60.92,60.92,0,0,1-15.6,13.78,66.63,66.63,0,0,1-21.19,8.43c-1.79.38-3.63.55-5.44.82H365.71a60.9,60.9,0,0,1-17.63-4.56,62.61,62.61,0,0,1-21.68-14.8,58.23,58.23,0,0,1-14.2-25c-.25-.93-.55-1.84-.84-2.81-2.21-.78-4.46-.33-6.65-.58a6.52,6.52,0,0,0-1.6-.47c-1.81-.06-3.63,0-5.45,0l-2.26-.06a6.43,6.43,0,0,0-1.6-.48c-2.2-.07-4.4,0-6.6-.06l-1.11,0a6.34,6.34,0,0,0-1.59-.48c-2.2-.07-4.4,0-6.6-.06l-1.69,0a6.44,6.44,0,0,0-1.6-.48c-2.2-.07-4.4-.05-6.6-.07-7.48-.72-13.43-4-17.62-10.36a24.62,24.62,0,0,1-3.27-9.23c-1.67-8.73-3.39-17.45-5.06-26.19-1.09-5.69-2.1-11.41-3.21-17.09a6.61,6.61,0,0,0-1.12-2.62c-4.45-5.95-7.53-12.63-10.33-19.44a329.91,329.91,0,0,1-12.37-37.45q-4.2-15.1-7.65-30.37c-2.19-9.71-4.24-19.45-6.26-29.2q-2.32-11.21-4.38-22.48c-1.14-6.18-2.14-12.38-3.17-18.57q-1.36-8.15-2.64-16.31c-.51-3.25-.94-6.5-1.39-9.76-.52-3.73-1.07-7.46-1.55-11.2-.5-3.93-.93-7.87-1.39-11.81-.31-2.69-.67-5.37-.94-8.06-.31-3.08-.53-6.16-.8-9.25-.2-2.31-.38-4.62-.6-6.93-.06-.65-.36-1.1-1.14-.79v-1.16c.57.27,1,.05,1-.52a20.82,20.82,0,0,0,0-2.3c0-1.34.07-2.67.09-4a2,2,0,0,0-1.07-1.89V438.69c.62-.09,1.11-.37,1.11-1.07,0-1.43,0-2.86-.08-4.29l-.07-6.36c0-.39.09-.77.1-1.16q.39-9.87.77-19.73c0-.48,0-1,.09-1.45q.46-4.91.93-9.82c.44-4.62.76-9.26,1.35-13.86.81-6.33,1.78-12.63,2.75-18.94,1.17-7.65,2.7-15.23,4.44-22.77a326.13,326.13,0,0,1,11.77-40.07c2.76-7.45,5.63-14.85,9.07-22q4.78-9.95,9.87-19.75c4.29-8.25,9-16.26,14.05-24.08,5.82-9,12-17.84,18.59-26.33,5.3-6.81,10.8-13.44,16.68-19.74a319.57,319.57,0,0,1,25.89-25A302,302,0,0,1,326,142.57a296.6,296.6,0,0,1,42.85-24.43c8.62-4,17.37-7.64,26.3-10.83a303.79,303.79,0,0,1,38.71-11.22c5.2-1.11,10.38-2.32,15.61-3.23,5.71-1,11.47-1.7,17.21-2.56,5.26-.79,10.55-1.35,15.86-1.71,1.14,0,2.29.09,3.43,0a9.48,9.48,0,0,0,1.87-.5l1.68-.05c2.49,0,5,0,7.47-.05a4.27,4.27,0,0,0,1.3-.49l.56,0c3.55,0,7.1,0,10.65,0a5.59,5.59,0,0,0,1.58-.52h48.84a5.77,5.77,0,0,0,1.58.51c3.16.05,6.32,0,9.49,0,2.51.18,5,.4,7.52.54,5.8.31,11.55,1,17.31,1.73,6.82.81,13.6,1.89,20.34,3.17a334.83,334.83,0,0,1,39.09,9.79,320.26,320.26,0,0,1,35.53,13.52,311,311,0,0,1,38.85,20.9,303.07,303.07,0,0,1,30.31,22c6.57,5.44,12.95,11.09,19.06,17,7.3,7.09,14.17,14.59,20.76,22.34,6.78,8,13.1,16.3,19.09,24.88q9.31,13.35,17.31,27.54a344,344,0,0,1,18,36.14,306.22,306.22,0,0,1,14,41.8,338,338,0,0,1,7.57,36.93c.93,6.51,1.93,13,2.69,19.54.73,6.24,1.29,12.51,1.73,18.78.38,5.4.49,10.83.71,16.24,0,1.06,0,2.13.05,3.2,0,.48-.09,1-.09,1.44q0,15.89,0,31.79c0,.38.05.77.08,1.15a109,109,0,0,1-1.69,16.44c-1,6.11-1.84,12.24-3,18.31-1.86,9.59-3.76,19.17-6,28.68-2.92,12.53-6,25-9.29,37.46-2.42,9.27-5,18.48-7.81,27.65q-5.4,17.93-11.17,35.74-6.15,18.92-13.57,37.39A241.91,241.91,0,0,1,817,684.38a55.66,55.66,0,0,1-5.74,9.07,6.75,6.75,0,0,0-1.23,3.21q-2.9,14.95-5.77,29.9-1.45,7.55-2.91,15.1c-1.27,6.64-5.11,11.36-10.91,14.61a23.17,23.17,0,0,1-10,2.8c-5.12.33-10.23.69-15.34,1-.58,0-1.16,0-1.74.07l-11,.62c-2.1,0-4.21,0-6.31.05a8.63,8.63,0,0,0-1.88.49c-1.45,0-2.9.06-4.35.15-1.84.11-2,.36-2.6,2.12-.88,2.76-1.74,5.54-2.81,8.22A55.61,55.61,0,0,1,723.34,789a62.9,62.9,0,0,1-17,13,63.62,63.62,0,0,1-18.85,6.45c-1.42.25-2.87.4-4.3.59H668a58.44,58.44,0,0,1-14.93-3.45,63.76,63.76,0,0,1-19.74-11.43,60.08,60.08,0,0,1-13.14-15.77,56.76,56.76,0,0,1-7.24-20.7,53,53,0,0,1-.4-12.43c.52-5.52,1.8-10.87,2.83-16.27,1.76-9.21,3.68-18.38,5.53-27.58q3.11-15.49,6.22-31,3-15.21,6.06-30.42,2.72-13.65,5.47-27.29t5.55-27.57q2.46-12.22,4.93-24.44,2.77-13.79,5.53-27.57c1.7-8.43,3.25-16.9,5.2-25.27a55.35,55.35,0,0,1,12.74-24.15,62.9,62.9,0,0,1,30-19A43.47,43.47,0,0,1,714,462.52Zm28.48,255.25,2.59-.21c.23-.88.48-1.61.62-2.35q9.7-50.5,19.38-101a2.93,2.93,0,0,0-.16-.8c-1.79-.79-3.69-1.75-5.66-2.48s-3.71-2-6.06-2.2q-10.85,54.53-21.66,108.88a.49.49,0,0,0,0,.28,2.86,2.86,0,0,0,.35.4h3c2.1,0,4.21,0,6.31,0A4.42,4.42,0,0,0,757.62,717.78Zm-458.14.54c1-.06,2.11.3,3.22-.3Q291.85,664,281,610a14.35,14.35,0,0,0-.51-1.54c-4,1.59-7.93,3.24-11.75,5.06.23,1.5.4,2.84.65,4.16q2.88,15.09,5.79,30.17T281,678q3.45,17.93,6.92,35.86c.24,1.21.6,2.4.92,3.65l2.45.22a4.31,4.31,0,0,0,1.3.49C294.89,718.32,297.18,718.3,299.48,718.32ZM648.26,163.61c1.4,0,2.85.39,4.14-.5,2.56-.26,5.13-.5,7.69-.78,3-.33,6.06-.7,9.09-1.06,1.21,0,2.47.39,3.56-.5.67-.07,1.35-.14,2-.23s1.34-.2,2-.33,1.33.18,2-.56c-.53-.34-1-.68-1.43-.92a233.27,233.27,0,0,0-21.94-10,260.19,260.19,0,0,0-32-10.36,237.42,237.42,0,0,0-24.13-5c-4.4-.64-8.8-1.24-13.22-1.77-3.65-.44-7.31-.76-11-1.13a8.36,8.36,0,0,0-1.88-.5c-2.29-.07-4.59,0-6.89-.05l-2.28,0c-1-.82-2.23-.49-3.35-.49q-24.17,0-48.34,0c-1.45,0-2.9,0-4.34.05a7.21,7.21,0,0,0-1.62.47l-2.85.06c-2.39,0-4.79,0-7.18.05a6.25,6.25,0,0,0-1.6.48c-2.31.19-4.62.36-6.93.58-4.33.42-8.67.73-13,1.34-5.54.78-11.06,1.76-16.58,2.73a254.1,254.1,0,0,0-33.16,8.28A241.43,241.43,0,0,0,391,157.14c-.56.28-1.08.66-2.07,1.26l12.85,1.79c1.08.88,2.34.52,3.55.52l5.19.62c1.28.93,2.73.51,4.12.53,1,.09,2.08.15,3.11.27,2.82.31,5.64.64,8.45,1,1.29.89,2.73.51,4.13.5l1.67.09c1.49,1,3.13.48,4.71.52l.55,0a4.4,4.4,0,0,0,1.29.5c1.33.07,2.66,0,4,0,1.52.09,3,.14,4.57.26,3.7.3,7.39.64,11.08,1a4.37,4.37,0,0,0,1.3.49c1.91.06,3.82,0,5.73.05l11,.64a4.31,4.31,0,0,0,1.3.48c2.68.05,5.37,0,8.05.05l2.27.05a4.32,4.32,0,0,0,1.31.48c3.46,0,6.92,0,10.38.05l4,0a8.57,8.57,0,0,0,1.62.45c1.05.08,2.12.06,3.17.06h13.85l34.23,0c6.17,0,12.34,0,18.52,0a4.26,4.26,0,0,0,1.31-.48l2.85-.05c3.46,0,6.91,0,10.37-.06a4.4,4.4,0,0,0,1.32-.47l2.27,0c2.88,0,5.76,0,8.64-.06a4.19,4.19,0,0,0,1.3-.49l1.11,0c2.1,0,4.21,0,6.31,0a4.45,4.45,0,0,0,1.31-.47l2.25-.07c1.72,0,3.45,0,5.17,0a4.33,4.33,0,0,0,1.3-.49l1.11,0c1.62,0,3.25,0,4.87,0a6.27,6.27,0,0,0,1.58-.5c3.05-.24,6.11-.46,9.16-.73C640.83,164.35,644.54,164,648.26,163.61Zm-278.47,603a4.05,4.05,0,0,0,1.26.52c1.5.07,3,.07,4.5,0a4.14,4.14,0,0,0,1.27-.5,17.58,17.58,0,0,0,10.29-5.54c3.76-4.18,5.5-9,4.34-14.71-.93-4.55-1.76-9.12-2.67-13.67Q385.39,716,382,699.19q-2.78-13.79-5.56-27.58-3-15.22-6.07-30.44-2.73-13.65-5.47-27.31L359.3,586l-5.46-27.3q-2.79-13.94-5.59-27.87c-.86-4.26-1.82-8.51-2.64-12.78-1.3-6.71-8.67-12.64-14.71-13.12-1.86-1-3.84-.44-5.78-.39-.24,0-.48.27-.71.41a17.33,17.33,0,0,0-10.28,5.54c-3.71,4.09-5.38,8.88-4.3,14.44q1.78,9.11,3.6,18.21,2.76,13.79,5.54,27.58,3,15.07,6.07,30.13,2.78,13.79,5.55,27.57T336,655.7q3,15.21,6.06,30.43c2,10.14,4.11,20.27,6.13,30.42,2.39,11.94,4.72,23.9,7.11,35.84a17.19,17.19,0,0,0,5,9.29A20.31,20.31,0,0,0,369.78,766.63ZM724.53,504.91c-1.86-1-3.84-.44-5.78-.39-.24,0-.48.27-.71.41a18.05,18.05,0,0,0-14.63,13.88c-.76,4-1.59,8-2.39,11.93l-6.2,30.68Q692,575.2,689.25,589t-5.49,27.57q-2.72,13.64-5.46,27.28-3.05,15.2-6.12,30.4c-2.22,11.08-4.39,22.18-6.61,33.26-2.58,12.88-5.28,25.74-7.77,38.64a16.21,16.21,0,0,0,4.53,15.21,18.92,18.92,0,0,0,9.79,5.31c.33.17.65.47,1,.48q2.53.08,5.06,0c.33,0,.65-.31,1-.48a24,24,0,0,0,2.52-.65c6.32-2.35,10.66-6.5,12-13.33q2.54-12.65,5.11-25.29,4.94-24.58,9.85-49.17,5.34-26.72,10.67-53.44t10.84-53.71q4.6-22.88,9.14-45.77a16.28,16.28,0,0,0,.08-6.35A17.89,17.89,0,0,0,724.53,504.91Z" transform="translate(-183.15 -86.92)"/><path class="cls-1" d="M498.86,87.48l-.56,0c-2.39,0-4.78,0-7.18.06a6.32,6.32,0,0,0-1.6.48l-1.68.05c-1.24,0-2.48-.05-3.71,0a7,7,0,0,0-1.59.47c-5.31.36-10.59.92-15.86,1.71-5.73.86-11.5,1.56-17.21,2.56-5.23.92-10.42,2.12-15.61,3.23a303.79,303.79,0,0,0-38.71,11.22c-8.94,3.19-17.69,6.84-26.3,10.83A296.6,296.6,0,0,0,326,142.57a302,302,0,0,0-25.55,19.65,319.57,319.57,0,0,0-25.89,25c-5.88,6.3-11.38,12.93-16.68,19.74-6.61,8.49-12.77,17.29-18.59,26.33-5,7.82-9.76,15.83-14.05,24.08q-5.09,9.79-9.87,19.75c-3.44,7.16-6.31,14.56-9.07,22a326.13,326.13,0,0,0-11.77,40.07c-1.74,7.54-3.27,15.12-4.44,22.77-1,6.31-1.94,12.61-2.75,18.94-.59,4.6-.91,9.24-1.35,13.86q-.47,4.91-.93,9.82c0,.48-.07,1-.09,1.45q-.39,9.87-.77,19.73c0,.39-.07.77-.1,1.16l-1,.09q0-170.07,0-340.14H498.87A1.31,1.31,0,0,1,498.86,87.48Z" transform="translate(-183.15 -86.92)"/><path class="cls-1" d="M880.93,423.54c0-1.07,0-2.13-.05-3.2-.22-5.42-.33-10.84-.71-16.24-.44-6.27-1-12.54-1.73-18.78-.76-6.53-1.76-13-2.69-19.54a338,338,0,0,0-7.57-36.93,306.22,306.22,0,0,0-14-41.8,344,344,0,0,0-18-36.14q-8-14.17-17.31-27.54c-6-8.58-12.31-16.9-19.09-24.88-6.59-7.76-13.46-15.25-20.76-22.34-6.12-5.94-12.5-11.58-19.06-17a303.07,303.07,0,0,0-30.31-22,311,311,0,0,0-38.85-20.9,320.26,320.26,0,0,0-35.53-13.52,334.83,334.83,0,0,0-39.09-9.79c-6.74-1.28-13.52-2.36-20.34-3.17-5.76-.69-11.52-1.41-17.31-1.73-2.51-.14-5-.36-7.52-.54a1.88,1.88,0,0,1,0-.54H881.46V423.58Z" transform="translate(-183.15 -86.92)"/><path class="cls-3" d="M880.93,423.54l.52,0v34.3l-.53,0c0-.38-.08-.77-.08-1.15q0-15.89,0-31.79C880.84,424.5,880.9,424,880.93,423.54Z" transform="translate(-183.15 -86.92)"/><path class="cls-4" d="M183.15,427.07l1-.09q0,3.18.07,6.36l-1,.12Q183.15,430.26,183.15,427.07Z" transform="translate(-183.15 -86.92)"/><path class="cls-5" d="M498.86,87.48a1.31,1.31,0,0,0,0-.56h12.21a5.59,5.59,0,0,1-1.58.52C506,87.49,502.41,87.48,498.86,87.48Z" transform="translate(-183.15 -86.92)"/><path class="cls-3" d="M571,86.92a1.88,1.88,0,0,0,0,.54c-3.16,0-6.32,0-9.49,0a5.77,5.77,0,0,1-1.58-.51Z" transform="translate(-183.15 -86.92)"/><path class="cls-6" d="M183.15,452.07a2,2,0,0,1,1.07,1.89c0,1.34-.06,2.67-.09,4l-1-.08Z" transform="translate(-183.15 -86.92)"/><path class="cls-7" d="M183.15,433.46l1-.12c0,1.43.07,2.86.08,4.29,0,.7-.48,1-1.11,1.07Z" transform="translate(-183.15 -86.92)"/><path class="cls-1" d="M183.15,457.88l1,.08a21,21,0,0,1,0,2.3c0,.57-.46.79-1,.52Z" transform="translate(-183.15 -86.92)"/><path class="cls-8" d="M515.14,211.37c.77,0,1.54-.07,2.31-.07H561.7c.77,0,1.54,0,2.31.07a3.45,3.45,0,0,1-1,.5,15.42,15.42,0,0,1-2,.05q-21.41,0-42.82,0C517.15,211.9,516,212.26,515.14,211.37Z" transform="translate(-183.15 -86.92)"/><path class="cls-9" d="M497.12,210.76c5.1,0,10.2,0,15.3.07a6.25,6.25,0,0,1,1.61.46c-5.2,0-10.39,0-15.59-.06A4.37,4.37,0,0,1,497.12,210.76Z" transform="translate(-183.15 -86.92)"/><path class="cls-10" d="M565.13,211.26a6.29,6.29,0,0,1,1.61-.46c4.71,0,9.42,0,14.13,0a4.65,4.65,0,0,1-1.33.44C574.73,211.25,569.93,211.25,565.13,211.26Z" transform="translate(-183.15 -86.92)"/><path class="cls-11" d="M365.71,809.07h15.71a5.94,5.94,0,0,1-1.62.5q-6.24.07-12.48,0A5.94,5.94,0,0,1,365.71,809.07Z" transform="translate(-183.15 -86.92)"/><path class="cls-12" d="M335.51,462.53l-15.17,0a5.94,5.94,0,0,1,1.59-.48q6-.06,12,0A5.93,5.93,0,0,1,335.51,462.53Z" transform="translate(-183.15 -86.92)"/><path class="cls-11" d="M668,809.08h15.17a5.8,5.8,0,0,1-1.59.49q-6,.06-12,0A5.82,5.82,0,0,1,668,809.08Z" transform="translate(-183.15 -86.92)"/><path class="cls-12" d="M729.14,462.53l-15.17,0a5.93,5.93,0,0,1,1.59-.48q6-.06,12,0A5.93,5.93,0,0,1,729.14,462.53Z" transform="translate(-183.15 -86.92)"/><path class="cls-13" d="M483.16,210.18c3.17,0,6.33,0,9.5.06a6.31,6.31,0,0,1,1.6.47c-3.26,0-6.53,0-9.79-.05A4.34,4.34,0,0,1,483.16,210.18Z" transform="translate(-183.15 -86.92)"/><path class="cls-13" d="M584.3,210.71a6.31,6.31,0,0,1,1.6-.47c3.17-.06,6.33,0,9.5-.06a4.35,4.35,0,0,1-1.31.47C590.83,210.71,587.57,210.7,584.3,210.71Z" transform="translate(-183.15 -86.92)"/><path class="cls-14" d="M471.55,209.58c2.49,0,5,0,7.46.07a8.72,8.72,0,0,1,1.89.48c-2.68,0-5.37,0-8.05-.05A4.19,4.19,0,0,1,471.55,209.58Z" transform="translate(-183.15 -86.92)"/><path class="cls-15" d="M597.67,210.14a6.41,6.41,0,0,1,1.6-.47c2.59-.06,5.17-.05,7.76-.07a4.21,4.21,0,0,1-1.3.49C603,210.15,600.36,210.13,597.67,210.14Z" transform="translate(-183.15 -86.92)"/><path class="cls-14" d="M608.14,209.56a8.75,8.75,0,0,1,1.88-.49c2.1-.07,4.21,0,6.31-.06a4.28,4.28,0,0,1-1.3.49C612.74,209.56,610.44,209.55,608.14,209.56Z" transform="translate(-183.15 -86.92)"/><path class="cls-15" d="M287.22,760.22c2.2,0,4.4,0,6.6.06a6.43,6.43,0,0,1,1.6.48c-2.3,0-4.6,0-6.9,0A4.26,4.26,0,0,1,287.22,760.22Z" transform="translate(-183.15 -86.92)"/><path class="cls-15" d="M462.24,209c2.2,0,4.4,0,6.6.07a6.46,6.46,0,0,1,1.6.48c-2.3,0-4.6,0-6.9-.05A4.19,4.19,0,0,1,462.24,209Z" transform="translate(-183.15 -86.92)"/><path class="cls-15" d="M268,759.05c2.2,0,4.4,0,6.6.07a6.44,6.44,0,0,1,1.6.48c-2.3,0-4.6,0-6.9,0A4.22,4.22,0,0,1,268,759.05Z" transform="translate(-183.15 -86.92)"/><path class="cls-13" d="M277.92,759.64c2.2,0,4.4,0,6.6.06a6.33,6.33,0,0,1,1.59.48c-2.3,0-4.59,0-6.89-.06A4.38,4.38,0,0,1,277.92,759.64Z" transform="translate(-183.15 -86.92)"/><path class="cls-9" d="M744.2,761.33a8.63,8.63,0,0,1,1.88-.49c2.1-.07,4.2,0,6.31-.05a4.42,4.42,0,0,1-1.3.47C748.79,761.33,746.49,761.32,744.2,761.33Z" transform="translate(-183.15 -86.92)"/><path class="cls-9" d="M297.68,760.82c1.82,0,3.63,0,5.45,0a6.52,6.52,0,0,1,1.6.47c-1.91,0-3.82,0-5.73,0A4.52,4.52,0,0,1,297.68,760.82Z" transform="translate(-183.15 -86.92)"/><path class="cls-13" d="M617.44,209a6.55,6.55,0,0,1,1.59-.48c1.81-.07,3.62,0,5.44-.06a4.35,4.35,0,0,1-1.3.49C621.26,209,619.35,209,617.44,209Z" transform="translate(-183.15 -86.92)"/><path class="cls-14" d="M447.11,207.87c1.62,0,3.25,0,4.86,0a6.42,6.42,0,0,1,1.59.49c-1.62,0-3.24,0-4.86,0A6.42,6.42,0,0,1,447.11,207.87Z" transform="translate(-183.15 -86.92)"/><path class="cls-13" d="M625.58,208.38a6.7,6.7,0,0,1,1.59-.48c1.43-.07,2.86,0,4.29,0a4.51,4.51,0,0,1-1.3.48C628.63,208.42,627.11,208.38,625.58,208.38Z" transform="translate(-183.15 -86.92)"/><path class="cls-13" d="M632.57,207.82a6.54,6.54,0,0,1,1.58-.5c1.43-.07,2.86,0,4.29,0a6.54,6.54,0,0,1-1.58.5C635.43,207.86,634,207.82,632.57,207.82Z" transform="translate(-183.15 -86.92)"/><path class="cls-9" d="M433.74,206.7c1.33,0,2.66,0,4,0a4.62,4.62,0,0,1,1.29.48c-1.33,0-2.66,0-4,0A4.6,4.6,0,0,1,433.74,206.7Z" transform="translate(-183.15 -86.92)"/><path class="cls-9" d="M646.51,206.61a7.38,7.38,0,0,1,1.58-.48c1-.08,2.08,0,3.12,0C649.73,207.05,648.1,206.61,646.51,206.61Z" transform="translate(-183.15 -86.92)"/><path class="cls-13" d="M416.31,204.94c1.14,0,2.28,0,3.41.06a4.77,4.77,0,0,1,1.29.49c-1.14,0-2.28,0-3.41,0A4.52,4.52,0,0,1,416.31,204.94Z" transform="translate(-183.15 -86.92)"/><path class="cls-9" d="M662.8,204.91c1.28-.9,2.74-.47,4.13-.52C665.65,205.28,664.2,204.89,662.8,204.91Z" transform="translate(-183.15 -86.92)"/><path class="cls-13" d="M422.11,205.54c1.39.05,2.84-.37,4.14.5C424.85,206.05,423.4,206.43,422.11,205.54Z" transform="translate(-183.15 -86.92)"/><path class="cls-14" d="M406.41,203.79c1.39.06,2.84-.37,4.13.53C409.14,204.3,407.69,204.7,406.41,203.79Z" transform="translate(-183.15 -86.92)"/><path class="cls-16" d="M672.12,766.64a18.92,18.92,0,0,1-9.79-5.31,16.21,16.21,0,0,1-4.53-15.21c2.49-12.9,5.18-25.76,7.77-38.64,2.22-11.08,4.4-22.17,6.61-33.26q3-15.2,6.12-30.4,2.74-13.64,5.46-27.28T689.25,589q2.76-13.78,5.56-27.55l6.2-30.68c.8-4,1.63-7.95,2.39-11.93A18,18,0,0,1,718,504.94l6.49,0a17.89,17.89,0,0,1,14.87,14,16.28,16.28,0,0,1-.08,6.35q-4.58,22.88-9.14,45.77-5.4,26.86-10.84,53.71T708.66,678.2q-4.92,24.59-9.85,49.17-2.54,12.65-5.11,25.29c-1.37,6.83-5.72,11-12,13.33a24,24,0,0,1-2.52.65Z" transform="translate(-183.15 -86.92)"/><path class="cls-16" d="M330.89,504.91c6,.48,13.41,6.41,14.71,13.12.83,4.27,1.78,8.52,2.64,12.78q2.81,13.93,5.59,27.87L359.3,586l5.59,27.87q2.73,13.65,5.47,27.31,3,15.22,6.07,30.44,2.76,13.79,5.56,27.58,3.39,16.78,6.78,33.55c.91,4.55,1.74,9.12,2.67,13.67,1.17,5.69-.58,10.53-4.34,14.71a17.58,17.58,0,0,1-10.29,5.54l-7,0a20.31,20.31,0,0,1-9.39-4.94,17.19,17.19,0,0,1-5-9.29c-2.39-11.94-4.73-23.9-7.11-35.84-2-10.14-4.1-20.28-6.13-30.42s-4-20.29-6.06-30.43q-2.72-13.65-5.47-27.3T325,600.84q-3-15.07-6.07-30.13-2.78-13.79-5.54-27.58-1.82-9.1-3.6-18.21c-1.08-5.55.59-10.35,4.3-14.44a17.33,17.33,0,0,1,10.28-5.54Z" transform="translate(-183.15 -86.92)"/><path class="cls-17" d="M593,167.7l-2.27,0c-3.36,0-6.72,0-10.08.05a6.26,6.26,0,0,0-1.6.47l-2.85.05c-6.07,0-12.14,0-18.21.07a6.38,6.38,0,0,0-1.62.45l-34.23,0a6.31,6.31,0,0,0-1.61-.45c-5.68,0-11.36,0-17,0l-4,0a6.32,6.32,0,0,0-1.61-.47c-3.36-.06-6.72,0-10.08-.06l-2.27-.05a6.38,6.38,0,0,0-1.6-.47c-2.58-.06-5.17,0-7.76-.06l-11-.64a6.51,6.51,0,0,0-1.59-.48c-1.81-.07-3.62,0-5.43-.06-3.69-.32-7.39-.66-11.08-1-1.52-.12-3-.18-4.57-.26a7.06,7.06,0,0,0-1.58-.48c-1.23-.08-2.46,0-3.7,0l-.55,0a4.72,4.72,0,0,0-1.29-.48c-1.14-.07-2.28,0-3.42,0l-1.67-.09c-1.29-.87-2.74-.44-4.13-.5-2.82-.32-5.63-.65-8.45-1-1-.11-2.08-.18-3.11-.27-1.28-.89-2.73-.46-4.12-.53l-5.19-.62c-1.08-.88-2.35-.48-3.55-.52l-12.85-1.79c1-.61,1.5-1,2.07-1.26a241.43,241.43,0,0,1,34.15-13.73,254.1,254.1,0,0,1,33.16-8.28c5.51-1,11-2,16.58-2.73,4.3-.61,8.64-.92,13-1.34,2.31-.22,4.62-.39,6.93-.58,2.49,0,5,0,7.47-.06a4.42,4.42,0,0,0,1.31-.47l2.85-.06c.77,0,1.54.08,2.31.08H560c1.35,0,2.7,0,4.05-.06l2.28,0a4.47,4.47,0,0,0,1.31.47c2.48.06,5,.06,7.45.08,3.65.37,7.32.69,11,1.13,4.41.53,8.82,1.14,13.22,1.77a237.42,237.42,0,0,1,24.13,5,260.19,260.19,0,0,1,32,10.36,233.27,233.27,0,0,1,21.94,10c.48.25.91.58,1.43.92-.67.75-1.39.45-2,.56s-1.33.24-2,.33-1.35.15-2,.23c-1.2,0-2.47-.34-3.56.5-3,.35-6.06.72-9.09,1.06-2.56.28-5.13.52-7.69.78-1.39,0-2.84-.38-4.14.5-3.71.36-7.42.74-11.14,1.08-3,.27-6.1.49-9.16.73-1.62,0-3.24,0-4.86.05a6.57,6.57,0,0,0-1.59.48l-1.11,0c-1.62,0-3.25,0-4.87,0a6.79,6.79,0,0,0-1.6.47l-2.25.07c-2,0-4,0-6,0a6.37,6.37,0,0,0-1.59.48l-1.11,0c-2.78,0-5.56,0-8.33.08A6.35,6.35,0,0,0,593,167.7Z" transform="translate(-183.15 -86.92)"/><path class="cls-18" d="M291.29,717.78l-2.45-.22c-.32-1.25-.69-2.44-.92-3.65Q284.44,696,281,678q-2.9-15.09-5.8-30.17T269.4,617.7c-.25-1.32-.42-2.66-.65-4.16,3.82-1.83,7.7-3.48,11.75-5.06A14.35,14.35,0,0,1,281,610q10.85,54,21.69,108c-1.11.6-2.19.24-3.22.3a6.38,6.38,0,0,0-1.59-.48C295.69,717.77,293.49,717.79,291.29,717.78Z" transform="translate(-183.15 -86.92)"/><path class="cls-19" d="M750,718.3h-3a2.86,2.86,0,0,1-.35-.4.49.49,0,0,1,0-.28q10.82-54.4,21.66-108.88c2.35.17,4.11,1.47,6.06,2.2s3.87,1.68,5.66,2.48a2.93,2.93,0,0,1,.16.8q-9.68,50.5-19.38,101c-.14.75-.38,1.47-.62,2.35l-2.59.21c-2,0-4,0-6,0A6.46,6.46,0,0,0,750,718.3Z" transform="translate(-183.15 -86.92)"/><path class="cls-13" d="M564,129.9c-1.35,0-2.7.06-4.05.06H508.7c-.77,0-1.54-.05-2.31-.08a7.19,7.19,0,0,1,1.62-.47c1.44-.07,2.89-.05,4.34-.05q24.17,0,48.34,0C561.81,129.4,563,129.08,564,129.9Z" transform="translate(-183.15 -86.92)"/><path class="cls-20" d="M556.39,168.85a6.38,6.38,0,0,1,1.62-.45c6.07,0,12.14-.06,18.21-.07a4.25,4.25,0,0,1-1.31.48C568.73,168.84,562.56,168.84,556.39,168.85Z" transform="translate(-183.15 -86.92)"/><path class="cls-21" d="M503.51,168.32c5.68,0,11.36,0,17,0a6.31,6.31,0,0,1,1.61.45H508.31c-1.06,0-2.12,0-3.17-.06A8.57,8.57,0,0,1,503.51,168.32Z" transform="translate(-183.15 -86.92)"/><path class="cls-20" d="M487.81,167.75c3.36,0,6.72,0,10.08.06a6.32,6.32,0,0,1,1.61.47c-3.46,0-6.92,0-10.38-.05A4.32,4.32,0,0,1,487.81,167.75Z" transform="translate(-183.15 -86.92)"/><path class="cls-22" d="M579.07,168.27a6.26,6.26,0,0,1,1.6-.47c3.36-.05,6.72,0,10.08-.05a4.4,4.4,0,0,1-1.32.47C586,168.26,582.53,168.26,579.07,168.27Z" transform="translate(-183.15 -86.92)"/><path class="cls-23" d="M593,167.7a6.35,6.35,0,0,1,1.6-.47c2.78-.07,5.56-.06,8.33-.08a4.18,4.18,0,0,1-1.3.49C598.78,167.7,595.9,167.69,593,167.7Z" transform="translate(-183.15 -86.92)"/><path class="cls-20" d="M476.19,167.16c2.59,0,5.17,0,7.76.06a6.38,6.38,0,0,1,1.6.47c-2.68,0-5.37,0-8.05-.05A4.31,4.31,0,0,1,476.19,167.16Z" transform="translate(-183.15 -86.92)"/><path class="cls-23" d="M489.52,88a6.32,6.32,0,0,1,1.6-.48c2.39-.06,4.78,0,7.18-.06A4.27,4.27,0,0,1,497,88C494.51,88,492,88,489.52,88Z" transform="translate(-183.15 -86.92)"/><path class="cls-14" d="M503.54,130a4.42,4.42,0,0,1-1.31.47c-2.49.06-5,0-7.47.06a6.24,6.24,0,0,1,1.6-.48C498.75,129.94,501.15,130,503.54,130Z" transform="translate(-183.15 -86.92)"/><path class="cls-9" d="M575.07,130.49c-2.49,0-5,0-7.45-.08a4.47,4.47,0,0,1-1.31-.47c2.3,0,4.59,0,6.88.05A8.36,8.36,0,0,1,575.07,130.49Z" transform="translate(-183.15 -86.92)"/><path class="cls-20" d="M291.29,717.78c2.2,0,4.4,0,6.59.06a6.38,6.38,0,0,1,1.59.48c-2.3,0-4.59,0-6.89-.05A4.31,4.31,0,0,1,291.29,717.78Z" transform="translate(-183.15 -86.92)"/><path class="cls-22" d="M750,718.3a6.46,6.46,0,0,1,1.59-.47c2-.06,4,0,6,0a4.42,4.42,0,0,1-1.31.48C754.22,718.31,752.11,718.29,750,718.3Z" transform="translate(-183.15 -86.92)"/><path class="cls-22" d="M604.07,167.11a6.37,6.37,0,0,1,1.59-.48c2-.06,4,0,6,0a4.45,4.45,0,0,1-1.31.47C608.28,167.12,606.18,167.1,604.07,167.11Z" transform="translate(-183.15 -86.92)"/><path class="cls-22" d="M458.17,166c1.81,0,3.62,0,5.43.06a6.51,6.51,0,0,1,1.59.48c-1.91,0-3.82,0-5.73-.05A4.37,4.37,0,0,1,458.17,166Z" transform="translate(-183.15 -86.92)"/><path class="cls-23" d="M369.78,766.63l7,0a4.13,4.13,0,0,1-1.26.5c-1.5.06-3,.05-4.5,0A4.05,4.05,0,0,1,369.78,766.63Z" transform="translate(-183.15 -86.92)"/><path class="cls-23" d="M672.12,766.64h7c-.33.17-.65.47-1,.48q-2.53.07-5.06,0C672.77,767.11,672.45,766.81,672.12,766.64Z" transform="translate(-183.15 -86.92)"/><path class="cls-15" d="M724.53,504.91l-6.49,0c.24-.14.47-.41.71-.41C720.68,504.48,722.66,503.9,724.53,504.91Z" transform="translate(-183.15 -86.92)"/><path class="cls-15" d="M330.89,504.91l-6.49,0c.24-.14.47-.41.71-.41C327.05,504.47,329,503.9,330.89,504.91Z" transform="translate(-183.15 -86.92)"/><path class="cls-20" d="M621.51,166a6.57,6.57,0,0,1,1.59-.48c1.62-.07,3.24,0,4.86-.05a6.27,6.27,0,0,1-1.58.5C624.76,166,623.14,165.95,621.51,166Z" transform="translate(-183.15 -86.92)"/><path class="cls-23" d="M613.94,166.51a6.79,6.79,0,0,1,1.6-.47c1.62-.07,3.24,0,4.87,0a4.32,4.32,0,0,1-1.3.49C617.39,166.55,615.66,166.51,613.94,166.51Z" transform="translate(-183.15 -86.92)"/><path class="cls-22" d="M437.25,164.23c1.23,0,2.47,0,3.7,0a7.06,7.06,0,0,1,1.58.48c-1.33,0-2.66,0-4,0A4.4,4.4,0,0,1,437.25,164.23Z" transform="translate(-183.15 -86.92)"/><path class="cls-22" d="M482.54,88.58a7,7,0,0,1,1.59-.47c1.23-.07,2.47,0,3.71,0a9.47,9.47,0,0,1-1.87.5C484.83,88.67,483.68,88.59,482.54,88.58Z" transform="translate(-183.15 -86.92)"/><path class="cls-22" d="M432,163.69c1.14,0,2.28,0,3.42,0a4.72,4.72,0,0,1,1.29.48C435.11,164.17,433.47,164.64,432,163.69Z" transform="translate(-183.15 -86.92)"/><path class="cls-22" d="M648.26,163.61c1.29-.88,2.74-.45,4.14-.5C651.1,164,649.66,163.6,648.26,163.61Z" transform="translate(-183.15 -86.92)"/><path class="cls-22" d="M426.18,163.1c1.39.05,2.84-.37,4.13.5C428.91,163.6,427.47,164,426.18,163.1Z" transform="translate(-183.15 -86.92)"/><path class="cls-20" d="M410.49,161.34c1.39.08,2.84-.35,4.12.53C413.22,161.85,411.77,162.26,410.49,161.34Z" transform="translate(-183.15 -86.92)"/><path class="cls-22" d="M401.75,160.19c1.2,0,2.47-.36,3.55.52C404.09,160.72,402.83,161.07,401.75,160.19Z" transform="translate(-183.15 -86.92)"/><path class="cls-20" d="M669.18,161.27c1.09-.85,2.35-.47,3.56-.5C671.65,161.66,670.39,161.3,669.18,161.27Z" transform="translate(-183.15 -86.92)"/></svg>
