<svg id="Layer_1" data-name="Layer 1" xmlns="http://www.w3.org/2000/svg" viewBox="0 0 549.46 443.05"><defs><style>.cls-1{fill:#e27451;}.cls-2{fill:#fff;}.cls-3{fill:#fffefe;}.cls-4{fill:#f5d1c5;}.cls-5{fill:#eca791;}.cls-6{fill:#e8b19d;}</style></defs><title>camera</title><path class="cls-1" d="M340.43,86.63H574.75c.1.22.2.44.29.67l35.14,86.37c.22.53.45,1.05.7,1.61h2q35.83,0,71.66,0a48,48,0,0,1,19.22,3.87c19,8.17,28,25.79,28.36,40,0,.72,0,1.45,0,2.17q0,130.71,0,261.42c0,.72,0,1.45.05,2.17a46.46,46.46,0,0,1-.46,4.91c-3.57,18.1-14.11,30.29-31.34,36.73a49.53,49.53,0,0,1-17.56,2.69q-225,0-450.1,0c-.58,0-1.16,0-1.74,0a41.81,41.81,0,0,1-5.37-.19,68,68,0,0,1-8.21-1.75,47.09,47.09,0,0,1-34-40.27,5.07,5.07,0,0,0-.47-3v-264a4.2,4.2,0,0,0,.5-3c.36-2.1.57-4.23,1.09-6.29a47.24,47.24,0,0,1,45-35.5c2.13,0,4.26,0,6.4,0,.41,0,.83-.07,1.35-.11V153.11c0-3.68,0-7.36,0-11s-.06-7.33,0-11h62.49V175.2h4.78c.25-.57.49-1.09.71-1.62Q322.6,130.79,340,88C340.18,87.56,340.29,87.09,340.43,86.63Zm216.4,26.05H360.37c-.39,0-.78,0-1.16,0a.91.91,0,0,0-1,.67c-.11.32-.25.63-.38.94l-34.77,85.43c-.66,1.62-.33,1.57-2.27,1.57H236.06a70.58,70.58,0,0,0-7.41.15c-8.63.92-14.6,5.49-17.86,13.53a20.92,20.92,0,0,0-1.24,8q0,129.22,0,258.44c0,.44,0,.87,0,1.31a19.47,19.47,0,0,0,3.35,10.81c4.45,6.56,10.74,9.68,18.63,9.68h452.2a29.71,29.71,0,0,0,3.62-.23,20.93,20.93,0,0,0,17.74-15.64,27.62,27.62,0,0,0,.68-6.47q0-128.78,0-257.57c0-.58,0-1.16,0-1.74a20.78,20.78,0,0,0-13.29-18.81,24.27,24.27,0,0,0-9-1.45H595.15c-.44,0-.87,0-1.31,0a1.12,1.12,0,0,1-1.31-.86c-.08-.28-.21-.54-.32-.81l-30.59-75.22C560.05,120.57,558.48,116.72,556.83,112.69ZM273.12,157.08h-9.39v18.09h9.39Z" transform="translate(-182.86 -86.63)"/><path class="cls-2" d="M732.08,219.18c-.38-14.25-9.36-31.87-28.36-40a48,48,0,0,0-19.22-3.87q-35.83,0-71.66,0h-2c-.24-.56-.48-1.08-.7-1.61L575,87.3c-.09-.22-.19-.44-.29-.67H732.32V219.2A.43.43,0,0,0,732.08,219.18Z" transform="translate(-182.86 -86.63)"/><path class="cls-2" d="M340.43,86.63c-.14.46-.25.93-.43,1.37q-17.39,42.79-34.8,85.58c-.22.53-.46,1.06-.71,1.62h-4.78V131.06H237.22c-.1,3.68,0,7.35,0,11s0,7.36,0,11v22.05c-.52,0-.93.11-1.35.11-2.13,0-4.26,0-6.4,0a47.24,47.24,0,0,0-45,35.5c-.52,2.06-.74,4.19-1.09,6.29l-.5.09q0-65.27,0-130.53Z" transform="translate(-182.86 -86.63)"/><path class="cls-3" d="M183.33,487a47.09,47.09,0,0,0,34,40.27,68,68,0,0,0,8.21,1.75,41.81,41.81,0,0,0,5.37.19c.58,0,1.16,0,1.74,0q225,0,450.1,0a49.53,49.53,0,0,0,17.56-2.69c17.22-6.44,27.77-18.63,31.34-36.73a46.46,46.46,0,0,0,.46-4.91h.12l.12,0v44.77H182.86q0-21.37,0-42.73Z" transform="translate(-182.86 -86.63)"/><path class="cls-4" d="M732.32,484.92l-.12,0h-.12c0-.72-.05-1.45-.05-2.17q0-130.71,0-261.42c0-.72,0-1.45,0-2.17a.43.43,0,0,1,.24,0Z" transform="translate(-182.86 -86.63)"/><path class="cls-5" d="M182.86,217.17l.5-.09a4.2,4.2,0,0,1-.5,3Z" transform="translate(-182.86 -86.63)"/><path class="cls-6" d="M183.33,487l-.47-.09V484A5.07,5.07,0,0,1,183.33,487Z" transform="translate(-182.86 -86.63)"/><path class="cls-2" d="M556.83,112.69c1.64,4,3.22,7.88,4.79,11.74l30.59,75.22c.11.27.24.53.32.81a1.12,1.12,0,0,0,1.31.86c.43,0,.87,0,1.31,0h88.38a24.27,24.27,0,0,1,9,1.45,20.78,20.78,0,0,1,13.29,18.81c0,.58,0,1.16,0,1.74q0,128.78,0,257.57a27.62,27.62,0,0,1-.68,6.47A20.93,20.93,0,0,1,687.37,503a29.71,29.71,0,0,1-3.62.23H231.55c-7.89,0-14.17-3.13-18.63-9.68a19.47,19.47,0,0,1-3.35-10.81c0-.44,0-.87,0-1.31q0-129.22,0-258.44a20.92,20.92,0,0,1,1.24-8c3.26-8,9.23-12.61,17.86-13.53a70.58,70.58,0,0,1,7.41-.15H320.8c1.95,0,1.61.06,2.27-1.57l34.77-85.43c.13-.31.26-.63.38-.94a.91.91,0,0,1,1-.67c.39,0,.78,0,1.16,0H556.83ZM291.09,330.22c.24,4.45.42,9,.74,13.54a141.62,141.62,0,0,0,4,24.63c9.93,39.29,31.53,70.69,64.33,94.36A163.4,163.4,0,0,0,425,490.63c5,1,10,1.72,15,2.38,3,.39,6,.44,9,.58a178.32,178.32,0,0,0,32.88-1.46c4-.54,7.91-1.35,11.82-2.22,36.15-8.06,66.56-25.92,90.81-53.92,22.86-26.4,35.78-57.15,39-91.95a162.53,162.53,0,0,0-4.13-52.77C610,254.36,590.07,224.27,560,201a164.07,164.07,0,0,0-81.37-33.3c-3.94-.49-7.9-.86-11.86-1.08a169.27,169.27,0,0,0-31,1.16A159.89,159.89,0,0,0,418.18,171c-28.54,7-53.78,20.21-75.12,40.42C309.08,243.64,292,283.33,291.09,330.22Zm324.57-80a37.57,37.57,0,0,0,.82,8.19,39,39,0,0,0,13.66,22.38,39.64,39.64,0,0,0,24.54,9.16,40.34,40.34,0,0,0,18.07-3.58,39.36,39.36,0,0,0,19.36-53.42,40.51,40.51,0,0,0-46.7-20.81,39.5,39.5,0,0,0-21.61,14.37A38.37,38.37,0,0,0,615.67,250.17Z" transform="translate(-182.86 -86.63)"/><path class="cls-2" d="M273.12,157.08v18.09h-9.39V157.08Z" transform="translate(-182.86 -86.63)"/><path class="cls-1" d="M291.09,330.22c.88-46.88,18-86.58,52-118.76C364.41,191.25,389.64,178,418.18,171a159.89,159.89,0,0,1,17.56-3.23,169.27,169.27,0,0,1,31-1.16c4,.22,7.92.59,11.86,1.08A164.07,164.07,0,0,1,560,201c30.1,23.24,50,53.34,59.41,90.25A162.53,162.53,0,0,1,623.51,344c-3.19,34.79-16.12,65.55-39,91.95-24.24,28-54.66,45.86-90.81,53.92-3.91.87-7.86,1.68-11.82,2.22A178.32,178.32,0,0,1,449,493.6c-3-.15-6-.2-9-.58-5-.66-10.06-1.4-15-2.38a163.4,163.4,0,0,1-64.86-27.89c-32.8-23.67-54.4-55.07-64.33-94.36a141.62,141.62,0,0,1-4-24.63C291.51,339.21,291.33,334.66,291.09,330.22Zm26.63-.17a129.27,129.27,0,0,0,2.75,27.42c6.31,29.86,21,54.89,43.79,75.11a138.3,138.3,0,0,0,64.34,32.19c4,.84,8,1.47,12,2.08,1.76.27,3.57.24,5.35.4a141.37,141.37,0,0,0,27.25-.34,129.77,129.77,0,0,0,13.46-2.12c30.59-6.56,56.41-21.41,77.05-44.94a136,136,0,0,0,26-135.55A139.77,139.77,0,0,0,470.26,193c-3.47-.29-7-.48-10.45-.55a113.38,113.38,0,0,0-19.37,1.12c-3,.46-6,.7-9,1.27a139.69,139.69,0,0,0-60.14,26.93A136.45,136.45,0,0,0,317.73,330Z" transform="translate(-182.86 -86.63)"/><path class="cls-1" d="M615.67,250.17a38.37,38.37,0,0,1,8.13-23.7,39.5,39.5,0,0,1,21.61-14.37,40.51,40.51,0,0,1,46.7,20.81,39.36,39.36,0,0,1-19.36,53.42,40.34,40.34,0,0,1-18.07,3.58,39.64,39.64,0,0,1-24.54-9.16,39,39,0,0,1-13.66-22.38A37.57,37.57,0,0,1,615.67,250.17Zm26.5.17a13.79,13.79,0,1,0,13.76-13.58A13.68,13.68,0,0,0,642.16,250.35Z" transform="translate(-182.86 -86.63)"/><path class="cls-2" d="M317.73,330A136.45,136.45,0,0,1,371.28,221.8a139.69,139.69,0,0,1,60.14-26.93c3-.56,6-.81,9-1.27a113.38,113.38,0,0,1,19.37-1.12c3.48.07,7,.26,10.45.55a139.77,139.77,0,0,1,119.43,91.28,135.9,135.9,0,0,1-26,135.55c-20.64,23.52-46.46,38.38-77.05,44.94a129.77,129.77,0,0,1-13.46,2.12,141.37,141.37,0,0,1-27.25.34c-1.78-.15-3.59-.13-5.35-.4-4-.62-8-1.25-12-2.08a138.3,138.3,0,0,1-64.34-32.19c-22.8-20.22-37.48-45.26-43.79-75.11A129.27,129.27,0,0,1,317.73,330Zm252.44.11c-.2-3.29-.33-6.58-.6-9.86a104.28,104.28,0,0,0-7-29.73,109.55,109.55,0,0,0-38.14-49.32,114,114,0,0,0-124.79-5.83c-30.27,17.93-50.34,49-53.81,83.45a109.13,109.13,0,0,0,37.27,93.91c18.61,16.23,40.36,25.28,65,27.42a113.41,113.41,0,0,0,70.27-17.08A110.5,110.5,0,0,0,570.17,330.16Z" transform="translate(-182.86 -86.63)"/><path class="cls-3" d="M642.16,250.35a13.79,13.79,0,1,1,13.78,13.57A13.65,13.65,0,0,1,642.16,250.35Z" transform="translate(-182.86 -86.63)"/><path class="cls-1" d="M570.17,330.16a110.5,110.5,0,0,1-51.79,93,113.41,113.41,0,0,1-70.27,17.08c-24.61-2.14-46.36-11.19-65-27.42a109.13,109.13,0,0,1-37.27-93.91c3.46-34.47,23.54-65.53,53.81-83.45a113.89,113.89,0,0,1,124.79,5.83,109.55,109.55,0,0,1,38.14,49.32,104.28,104.28,0,0,1,7,29.73C569.84,323.58,570,326.87,570.17,330.16Zm-26.59,0A84,84,0,0,0,538,300a86.57,86.57,0,0,0-143.11-27.52,83.48,83.48,0,0,0-17,88.79c14.51,35.74,52.11,58.3,92.87,52.31a85.46,85.46,0,0,0,30.52-10.68A84.32,84.32,0,0,0,543.58,330.13Z" transform="translate(-182.86 -86.63)"/><path class="cls-2" d="M543.58,330.13a84.32,84.32,0,0,1-42.37,72.8,85.46,85.46,0,0,1-30.52,10.68c-40.75,6-78.36-16.57-92.87-52.31a83.4,83.4,0,0,1,17-88.79A86.6,86.6,0,0,1,538,300,84,84,0,0,1,543.58,330.13Z" transform="translate(-182.86 -86.63)"/></svg>