<svg id="Layer_1" data-name="Layer 1" xmlns="http://www.w3.org/2000/svg" viewBox="0 0 630.86 630.86"><defs><style>.cls-1{fill:#63aed6;}.cls-2{fill:#fff;}.cls-3{fill:#acd4e9;}.cls-4{fill:#acd2e8;}.cls-5{fill:#bcd9eb;}.cls-6{fill:#b1d7eb;}.cls-7{fill:#63afd6;}.cls-8{fill:#62aed6;}.cls-9{fill:#65b0d7;}</style></defs><title>chat</title><path class="cls-1" d="M814,266.59V432.88a15.61,15.61,0,0,0-.54,6.43c-.07,1.55,0,3.11-.22,4.64a179.59,179.59,0,0,1-3.48,20.91q-17.37,74-79.9,117.22a186.79,186.79,0,0,1-84.6,31.75c-1.52.18-3,.45-4.4.65a7,7,0,0,0-.46,3.64q0,20.2,0,40.4c0,10.75,0,21.51,0,32.26a29.65,29.65,0,0,1-.56,6.64c-2.49,10.51-9.18,17-19.57,19.69-.73.19-1.45.45-2.17.68h-7a4.22,4.22,0,0,0-1-.5,26.69,26.69,0,0,1-14.26-7.88c-6-6.15-12.18-12.21-18.29-18.29-5.57-5.54-11.31-10.88-17.38-15.86q-71-58.2-162.82-59.92c-6.88-.12-13.76,0-20.63,0a198.82,198.82,0,0,1-30.1-2.31A192.63,192.63,0,0,1,193.07,482a187,187,0,0,1-8.86-47c-.09-1.54-.09-3.11-1.06-4.45V274.73a1.79,1.79,0,0,0,1-1.63c0-1.44,0-2.88,0-4.31.29-3.77.46-7.55.89-11.3a192.47,192.47,0,0,1,178.38-170c2.26,0,4.53,0,6.79-.13a9.39,9.39,0,0,0,1.91-.48H626.21c2.86.82,5.8.63,8.72.59a210.47,210.47,0,0,1,24.73,3.34A192.74,192.74,0,0,1,807.93,230.08a151.75,151.75,0,0,1,5.59,33.73A19.73,19.73,0,0,0,814,266.59ZM640.84,576.79a12.45,12.45,0,0,0,1.63,0,145.46,145.46,0,0,0,18.24-3.53A155.78,155.78,0,0,0,772.3,461.84a160,160,0,0,0,5-40.55q0-68.75,0-137.49c0-4.65-.18-9.3-.38-13.94A137.52,137.52,0,0,0,773,243.45,155.84,155.84,0,0,0,662.22,129.51a158.59,158.59,0,0,0-41.67-5.32q-120.34,0-240.69,0c-4.55,0-9.1.2-13.65.39a135.57,135.57,0,0,0-23.29,3.2,155.66,155.66,0,0,0-109.86,91.45A150.68,150.68,0,0,0,221,278.08q-.12,73.11,0,146.21c0,3.48.26,7,.46,10.45a135.19,135.19,0,0,0,3.24,22.11,155.35,155.35,0,0,0,150,121.3c7.27.1,14.53,0,21.8,0,7.85,0,15.68.41,23.51,1.08a289.52,289.52,0,0,1,32.77,4.68,296.09,296.09,0,0,1,147.91,77.8c.68.65,1.2,1.54,2.38,1.78a5.68,5.68,0,0,0,.36-3.07q0-31,0-61.92,0-25.73,0-51.45a27.22,27.22,0,0,1,.38-5.49,18.53,18.53,0,0,1,35.93-1.15,22.61,22.61,0,0,1,.67,6c0,8.91,0,17.83,0,26.74A6.76,6.76,0,0,0,640.84,576.79Z" transform="translate(-183.15 -86.92)"/><path class="cls-2" d="M183.15,430.55c1,1.33,1,2.9,1.06,4.45a187,187,0,0,0,8.86,47A192.63,192.63,0,0,0,346.59,613a198.82,198.82,0,0,0,30.1,2.31c6.88,0,13.76-.08,20.63,0q91.86,1.55,162.82,59.92c6.07,5,11.82,10.33,17.38,15.86,6.11,6.08,12.25,12.14,18.29,18.29a26.69,26.69,0,0,0,14.26,7.88,4.22,4.22,0,0,1,1,.5H183.15Z" transform="translate(-183.15 -86.92)"/><path class="cls-2" d="M618.07,717.78c.72-.23,1.44-.49,2.17-.68,10.39-2.73,17.07-9.18,19.57-19.69a29.65,29.65,0,0,0,.56-6.64c.05-10.75,0-21.51,0-32.26q0-20.2,0-40.4a7,7,0,0,1,.46-3.64c1.38-.21,2.89-.47,4.4-.65a186.79,186.79,0,0,0,84.6-31.75q62.55-43.08,79.9-117.22A179.59,179.59,0,0,0,813.25,444c.17-1.54.15-3.09.22-4.64l.27,0H814V717.78Z" transform="translate(-183.15 -86.92)"/><path class="cls-2" d="M363.42,87.53A192.35,192.35,0,0,0,185,257.49c-.43,3.75-.6,7.53-.89,11.3l-1,.13v-182H363.4Z" transform="translate(-183.15 -86.92)"/><path class="cls-2" d="M814,266.59a19.73,19.73,0,0,1-.49-2.78,151.75,151.75,0,0,0-5.59-33.73A192.74,192.74,0,0,0,659.65,90.85a210.47,210.47,0,0,0-24.73-3.34v-.59H814Z" transform="translate(-183.15 -86.92)"/><path class="cls-3" d="M183.15,268.91l1-.13c0,1.44,0,2.88,0,4.31a1.79,1.79,0,0,1-1,1.63Z" transform="translate(-183.15 -86.92)"/><path class="cls-4" d="M363.42,87.53l0-.6h8.72a9.39,9.39,0,0,1-1.91.48C368,87.49,365.68,87.49,363.42,87.53Z" transform="translate(-183.15 -86.92)"/><path class="cls-5" d="M634.93,86.92v.59c-2.92,0-5.86.24-8.72-.59Z" transform="translate(-183.15 -86.92)"/><path class="cls-6" d="M814,439.28h-.27l-.27,0a15.61,15.61,0,0,1,.54-6.43Z" transform="translate(-183.15 -86.92)"/><path class="cls-2" d="M640.84,576.79a6.76,6.76,0,0,1-.44-3.55c0-8.91,0-17.83,0-26.74a22.61,22.61,0,0,0-.67-6,18.53,18.53,0,0,0-35.93,1.15,27.22,27.22,0,0,0-.38,5.49q0,25.73,0,51.45,0,31,0,61.92a5.68,5.68,0,0,1-.36,3.07c-1.18-.24-1.71-1.12-2.38-1.78a296.09,296.09,0,0,0-147.91-77.8,289.52,289.52,0,0,0-32.77-4.68c-7.82-.67-15.65-1.08-23.51-1.08-7.27,0-14.54.06-21.8,0a155.35,155.35,0,0,1-150-121.3,135.19,135.19,0,0,1-3.24-22.11c-.2-3.48-.46-7-.46-10.45q0-73.11,0-146.21a150.68,150.68,0,0,1,12.1-58.82,155.66,155.66,0,0,1,109.86-91.45,135.57,135.57,0,0,1,23.29-3.2c4.55-.19,9.1-.39,13.65-.39q120.34,0,240.69,0a158.59,158.59,0,0,1,41.67,5.32A155.84,155.84,0,0,1,773,243.45a137.52,137.52,0,0,1,3.87,26.41c.21,4.64.38,9.29.38,13.94q0,68.75,0,137.49a160,160,0,0,1-5,40.55,155.78,155.78,0,0,1-111.6,111.41,145.46,145.46,0,0,1-18.24,3.53A12.45,12.45,0,0,1,640.84,576.79ZM329.55,318.87a8.43,8.43,0,0,1-.44-3.73q0-30.37,0-60.75c0-1,0-1.94,0-2.91a11.36,11.36,0,0,0-.28-1.56,6.49,6.49,0,0,0-3.28-.4q-11.77,0-23.54,0c-2.42,0-4.84,0-7.27,0a14.06,14.06,0,0,0-2.08.36c0,1.39-.1,2.63-.1,3.87q0,87.78,0,175.56c0,.68,0,1.36,0,2s.16,1.1.26,1.73a16.9,16.9,0,0,0,1.84.21q16.13,0,32.26,0a12.23,12.23,0,0,0,1.93-.3,10.9,10.9,0,0,0,.27-3.59q0-24.56,0-49.12,0-9.45,0-18.89a76.1,76.1,0,0,1,1.14-12.72,40,40,0,0,1,3.09-10.26,20.4,20.4,0,0,1,12.08-11.09,34.83,34.83,0,0,1,19.47-1.08,17,17,0,0,1,12.55,10.62,44.67,44.67,0,0,1,2.82,11.24,83.77,83.77,0,0,1,.58,11.31q0,35,0,70a8.25,8.25,0,0,0,.36,3.62,21.13,21.13,0,0,0,2.17.24c2.23,0,4.46,0,6.69,0,8,0,16.08,0,24.12,0,1,0,2.14.3,3.22-.68,0-1.11,0-2.36,0-3.61q0-37.64,0-75.28a133.74,133.74,0,0,0-.6-14.51,79.25,79.25,0,0,0-2.78-14.82c-4.16-13.55-13.19-22-26.78-25.74A69,69,0,0,0,366,296.74a34.8,34.8,0,0,0-5.47.69,47.76,47.76,0,0,0-19.3,8.38,42.89,42.89,0,0,0-9.7,10.34C331,316.93,330.39,317.68,329.55,318.87ZM482.71,433c0-1.46.08-2.71.08-4q0-62.17,0-124.33c0-.87,0-1.75,0-2.61a11.74,11.74,0,0,0-.36-1.66,13.93,13.93,0,0,0-1.55-.18q-16.27,0-32.53,0a10,10,0,0,0-1.64.27,10.51,10.51,0,0,0-.35,4.14q0,62.17,0,124.33c0,.87,0,1.74,0,2.61a8.47,8.47,0,0,0,.29,1.34,3.31,3.31,0,0,0,.91.32q16.85,0,33.69,0A9,9,0,0,0,482.71,433Zm59.71-54.79c.24-1.47.47-2.61.62-3.75.48-3.75.92-7.5,1.4-11.24q1.6-12.54,3.22-25.07c1.32-10.38,2.62-20.75,4-31.13a100.72,100.72,0,0,0,1-13.9c-.1-9.88,0-19.77,0-29.65,0-3.68,0-7.36,0-11a3.66,3.66,0,0,0-.6-2.71c-.78,0-1.73-.15-2.67-.15-4.17,0-8.33,0-12.5,0-6.3,0-12.6,0-18.89,0a5.28,5.28,0,0,0-3.24.54c0,1.12-.09,2.27-.09,3.41q0,21.51,0,43a57.56,57.56,0,0,0,.44,6.07c.42,3.85.91,7.69,1.38,11.54q1.25,10.24,2.52,20.47,1.34,10.81,2.69,21.62c.82,6.63,1.62,13.27,2.46,19.9a13.73,13.73,0,0,0,.62,2.06C530.51,378.23,536.29,378.23,542.42,378.17ZM553.62,433c.48-2.69.66-24.81.33-37,0-.65-.15-1.31-.25-2.08a17.35,17.35,0,0,0-2.05-.3c-1.74,0-3.49,0-5.23,0q-14.68,0-29.36,0c-1.13,0-2.33-.29-3.36.46-.35,2.47-.53,28.66-.24,37.21,0,.56.14,1.12.23,1.8a15.6,15.6,0,0,0,1.75.28C523.58,433.66,551.14,433.44,553.62,433Zm-107-153.57c1.34,0,2.4.11,3.45.11q14.53,0,29.05,0a6.4,6.4,0,0,0,3.47-.44,13.8,13.8,0,0,0,.21-1.7q0-12.93,0-25.86a9.8,9.8,0,0,0-.27-1.63,7.37,7.37,0,0,0-3.28-.37q-10,0-20,0c-3.39,0-6.78,0-10.17,0-.85,0-1.76-.16-2.44.6-.35,2.44-.51,18.8-.25,27C446.34,277.77,446.47,278.43,446.6,279.43Z" transform="translate(-183.15 -86.92)"/><path class="cls-7" d="M329.55,318.87c.85-1.18,1.42-1.93,1.95-2.71a42.89,42.89,0,0,1,9.7-10.34,47.76,47.76,0,0,1,19.3-8.38,34.8,34.8,0,0,1,5.47-.69,69,69,0,0,1,21.33,1.93c13.59,3.71,22.62,12.19,26.78,25.74a79.25,79.25,0,0,1,2.78,14.82,133.74,133.74,0,0,1,.6,14.51q0,37.64,0,75.28c0,1.25,0,2.5,0,3.61-1.08,1-2.2.67-3.22.68-8,0-16.08,0-24.12,0-2.23,0-4.46,0-6.69,0a21.13,21.13,0,0,1-2.17-.24,8.25,8.25,0,0,1-.36-3.62q0-35,0-70a83.77,83.77,0,0,0-.58-11.31,44.67,44.67,0,0,0-2.82-11.24,17,17,0,0,0-12.55-10.62,34.83,34.83,0,0,0-19.47,1.08,20.4,20.4,0,0,0-12.08,11.09,40,40,0,0,0-3.09,10.26,76.1,76.1,0,0,0-1.14,12.72q0,9.45,0,18.89,0,24.56,0,49.12a10.9,10.9,0,0,1-.27,3.59,12.23,12.23,0,0,1-1.93.3q-16.13,0-32.26,0a16.9,16.9,0,0,1-1.84-.21c-.1-.64-.22-1.18-.26-1.73s0-1.36,0-2q0-87.78,0-175.56c0-1.24.06-2.48.1-3.87a14.06,14.06,0,0,1,2.08-.36c2.42,0,4.84,0,7.27,0q11.77,0,23.54,0a6.49,6.49,0,0,1,3.28.4,11.36,11.36,0,0,1,.28,1.56c.05,1,0,1.94,0,2.91q0,30.37,0,60.75A8.43,8.43,0,0,0,329.55,318.87Z" transform="translate(-183.15 -86.92)"/><path class="cls-8" d="M482.71,433a9,9,0,0,1-1.47.31q-16.85,0-33.69,0a3.31,3.31,0,0,1-.91-.32,8.47,8.47,0,0,1-.29-1.34c-.05-.87,0-1.74,0-2.61q0-62.17,0-124.33a10.51,10.51,0,0,1,.35-4.14,10,10,0,0,1,1.64-.27q16.27,0,32.53,0a13.93,13.93,0,0,1,1.55.18,11.74,11.74,0,0,1,.36,1.66c.06.87,0,1.74,0,2.61q0,62.17,0,124.33C482.79,430.25,482.74,431.5,482.71,433Z" transform="translate(-183.15 -86.92)"/><path class="cls-1" d="M542.42,378.17c-6.13.06-11.91.06-17.78,0a13.73,13.73,0,0,1-.62-2.06c-.84-6.63-1.64-13.26-2.46-19.9q-1.34-10.81-2.69-21.62-1.27-10.24-2.52-20.47c-.47-3.85-1-7.69-1.38-11.54a57.56,57.56,0,0,1-.44-6.07q-.06-21.51,0-43c0-1.15.06-2.29.09-3.41a5.28,5.28,0,0,1,3.24-.54c6.3,0,12.6,0,18.89,0,4.17,0,8.33,0,12.5,0,.95,0,1.89.11,2.67.15a3.66,3.66,0,0,1,.6,2.71c0,3.68,0,7.36,0,11,0,9.88-.07,19.77,0,29.65a100.72,100.72,0,0,1-1,13.9c-1.34,10.37-2.64,20.75-4,31.13q-1.6,12.54-3.22,25.07c-.48,3.75-.92,7.5-1.4,11.24C542.89,375.56,542.67,376.7,542.42,378.17Z" transform="translate(-183.15 -86.92)"/><path class="cls-9" d="M553.62,433c-2.48.44-30,.66-38.19.32a15.6,15.6,0,0,1-1.75-.28c-.09-.68-.21-1.24-.23-1.8-.28-8.54-.11-34.74.24-37.21,1-.75,2.23-.46,3.36-.46q14.68,0,29.36,0c1.74,0,3.49,0,5.23,0a17.35,17.35,0,0,1,2.05.3c.1.78.23,1.43.25,2.08C554.28,408.19,554.1,430.31,553.62,433Z" transform="translate(-183.15 -86.92)"/><path class="cls-8" d="M446.6,279.43c-.12-1-.25-1.65-.27-2.31-.26-8.19-.11-24.55.25-27,.67-.76,1.59-.59,2.44-.6,3.39,0,6.78,0,10.17,0q10,0,20,0a7.37,7.37,0,0,1,3.28.37,9.8,9.8,0,0,1,.27,1.63q0,12.93,0,25.86a13.8,13.8,0,0,1-.21,1.7,6.4,6.4,0,0,1-3.47.44q-14.53,0-29.05,0C449,279.54,447.94,279.47,446.6,279.43Z" transform="translate(-183.15 -86.92)"/></svg>