<svg id="Layer_1" data-name="Layer 1" xmlns="http://www.w3.org/2000/svg" viewBox="0 0 610.51 610.51"><defs><style>.cls-1{fill:#fff;}.cls-2{fill:#65c59b;}.cls-3{fill:#feffff;}.cls-4{fill:#98d8bc;}.cls-5{fill:#abdfc9;}.cls-6{fill:#b9e5d2;}.cls-7{fill:#c3e8d8;}.cls-8{fill:#b2e2cd;}.cls-9{fill:#b5e3cf;}.cls-10{fill:#a6ddc5;}</style></defs><title>link</title><path class="cls-1" d="M183.15,557.31q0-235.12,0-470.38H652.37v.59c-4.22.56-8.45,1-12.65,1.69a123.79,123.79,0,0,0-31.54,9.69A129.89,129.89,0,0,0,569.32,126c-7.57,7.64-15.2,15.22-22.8,22.82Q512,183.35,477.46,217.87A142.94,142.94,0,0,0,466,230.6a129.75,129.75,0,0,0-18,30.72,133.14,133.14,0,0,0-8,27.24,141.4,141.4,0,0,0-2,17.57,114.82,114.82,0,0,0,.26,15.38,143,143,0,0,0,3.44,22,12.05,12.05,0,0,1,.14,1.59c-1-.15-1.74-.22-2.46-.39a138.21,138.21,0,0,0-32.81-3.62c-1.74,0-3.47.28-5.21.33a113.24,113.24,0,0,0-15.56,1.75,127.06,127.06,0,0,0-32.86,10.3A131.06,131.06,0,0,0,315.33,380q-46.19,46.29-92.46,92.51c-2.67,2.67-5.23,5.45-7.72,8.29A119.1,119.1,0,0,0,201,500.94a130,130,0,0,0-16.82,56.26Z" transform="translate(-183.15 -86.92)"/><path class="cls-1" d="M793.66,232.28V697.43H326.19v-.59l4.61-.48a118.08,118.08,0,0,0,22.42-4.61,129,129,0,0,0,54.57-32.56q47-46.94,93.92-93.94c2.32-2.33,4.55-4.77,6.71-7.25a127.46,127.46,0,0,0,22.21-36.59,133.29,133.29,0,0,0,9.4-49.62c0-2.9-.23-5.8-.43-8.7-.19-2.7-.39-5.41-.76-8.09a129.71,129.71,0,0,0-2.63-14,7.08,7.08,0,0,1,0-1.65,5.46,5.46,0,0,1,1.06,0q6.07,1.48,12.24,2.4a133.28,133.28,0,0,0,15.88,1.48,135.28,135.28,0,0,0,27.74-2.18,129.46,129.46,0,0,0,35.14-11.71,131.53,131.53,0,0,0,34.4-25q46.19-46.3,92.46-92.52c2.67-2.67,5.23-5.45,7.71-8.3a123.08,123.08,0,0,0,15.16-22,129.69,129.69,0,0,0,13.79-38.68,53.47,53.47,0,0,0,1.36-10.64l.27,0Z" transform="translate(-183.15 -86.92)"/><path class="cls-2" d="M793.11,232.31a53.47,53.47,0,0,1-1.36,10.64A129.69,129.69,0,0,1,778,281.62a123.08,123.08,0,0,1-15.16,22c-2.48,2.85-5,5.63-7.71,8.3q-46.21,46.27-92.46,92.52a131.53,131.53,0,0,1-34.4,25,129.46,129.46,0,0,1-35.14,11.71,135.28,135.28,0,0,1-27.74,2.18,133.28,133.28,0,0,1-15.88-1.48q-6.18-.91-12.24-2.4a5.46,5.46,0,0,0-1.06,0,7.08,7.08,0,0,0,0,1.65,129.71,129.71,0,0,1,2.63,14c.37,2.68.57,5.39.76,8.09.2,2.9.44,5.8.43,8.7a133.29,133.29,0,0,1-9.4,49.62A127.46,127.46,0,0,1,508.41,558c-2.16,2.48-4.38,4.92-6.71,7.25q-46.94,47-93.92,93.94a129,129,0,0,1-54.57,32.56,118.08,118.08,0,0,1-22.42,4.61l-4.61.48H304.09c-1.63-.17-3.26-.34-4.9-.49a108.7,108.7,0,0,1-15.4-2.73A130.89,130.89,0,0,1,252,681.32a127.81,127.81,0,0,1-24.39-17.17A129.85,129.85,0,0,1,196,621.54a128.47,128.47,0,0,1-11.83-46.66c0-1.22.06-2.45.05-3.67,0-.68-.45-1-1.07-1.1v-8.72a1.08,1.08,0,0,0,1-1.1c0-1,0-2.05-.06-3.08A130,130,0,0,1,201,500.94a119.1,119.1,0,0,1,14.2-20.15c2.49-2.84,5-5.62,7.72-8.29q46.21-46.27,92.46-92.51a131.06,131.06,0,0,1,37.57-26.46,127.06,127.06,0,0,1,32.86-10.3,113.24,113.24,0,0,1,15.56-1.75c1.74,0,3.47-.31,5.21-.33a138.21,138.21,0,0,1,32.81,3.62c.72.17,1.46.23,2.46.39a12.05,12.05,0,0,0-.14-1.59,143,143,0,0,1-3.44-22,114.82,114.82,0,0,1-.26-15.38,141.4,141.4,0,0,1,2-17.57,133.14,133.14,0,0,1,8-27.24,129.75,129.75,0,0,1,18-30.72,142.94,142.94,0,0,1,11.47-12.73q34.54-34.51,69.06-69.05c7.6-7.6,15.24-15.18,22.8-22.82a129.89,129.89,0,0,1,38.87-27.1,123.79,123.79,0,0,1,31.54-9.69c4.2-.68,8.43-1.13,12.65-1.69l4-.08c1,0,2.07.34,2.92-.51h7a4.7,4.7,0,0,0,1.3.46c1.89.08,3.78.09,5.68.12,4,.55,8.06,1,12.07,1.65a124.33,124.33,0,0,1,34.74,11.07,130.7,130.7,0,0,1,71,90.5,73.36,73.36,0,0,1,2.05,14.93,10.4,10.4,0,0,0,.49,2.21v19.19a4.34,4.34,0,0,0-.51,1.28C793.08,229.65,793.12,231,793.11,232.31ZM487.61,419c-1.07,1-1.91,1.81-2.72,2.62L408,498.52c-1,1-1.9,1.93-2.88,2.87a17.36,17.36,0,0,1-15.46,4.81,17.9,17.9,0,0,1-11.17-28.73,29.06,29.06,0,0,1,2.59-2.75l64.12-64.13q7.4-7.4,14.79-14.8a5.13,5.13,0,0,0,1.82-2.39,14.13,14.13,0,0,0-1.46-1.21A95.33,95.33,0,0,0,409,377.12c-2.8,0-5.6.28-8.4.42a83.1,83.1,0,0,0-19.64,3.66,94.5,94.5,0,0,0-40.17,24.13q-46.54,46.56-93.07,93.13a98.59,98.59,0,0,0-7.87,8.93,95.42,95.42,0,0,0,90,152.93,97.13,97.13,0,0,0,24.7-7.3A95.53,95.53,0,0,0,383,633.24q11.4-11.42,22.81-22.81,34.73-34.73,69.45-69.48c2.73-2.74,5.35-5.61,7.8-8.61a92,92,0,0,0,13.72-23.16A97.53,97.53,0,0,0,504,477a97.33,97.33,0,0,0-15.06-56.33C488.63,420.23,488.23,419.81,487.61,419Zm28-28c1.1.75,1.86,1.32,2.67,1.82a97.22,97.22,0,0,0,12.84,6.77,95.34,95.34,0,0,0,47.7,7.3,97.15,97.15,0,0,0,19.85-4.11,93.34,93.34,0,0,0,37.86-23q47-46.91,93.92-93.93a98.48,98.48,0,0,0,6.92-7.83c12.88-16,19.44-34.4,20.73-54.76a81.32,81.32,0,0,0-.29-13.05,104.34,104.34,0,0,0-3.52-18.79A92.48,92.48,0,0,0,735,155.94a93.84,93.84,0,0,0-34.68-25.29,97,97,0,0,0-35.55-7.6c-3.19-.08-6.38.12-9.57.35a90.66,90.66,0,0,0-14,2.11,93.49,93.49,0,0,0-45.7,25.18q-47,46.9-93.92,93.93a89.8,89.8,0,0,0-6,6.67A94.81,94.81,0,0,0,474,304.9a93.85,93.85,0,0,0,2.22,28.85,96.1,96.1,0,0,0,12.37,29.6c.44.71,1,1.34,1.64,2.17,1-1,1.81-1.77,2.62-2.58l76.87-76.86c1-1,1.94-1.9,2.88-2.88,5.7-6,15.48-6.56,22-2.56a18,18,0,0,1,3.86,27.45c-.94,1-1.91,1.93-2.87,2.89l-77.28,77.28C517.47,389.06,516.66,389.89,515.57,391Z" transform="translate(-183.15 -86.92)"/><path class="cls-3" d="M184.17,574.87A128.47,128.47,0,0,0,196,621.54a129.85,129.85,0,0,0,31.58,42.6A127.81,127.81,0,0,0,252,681.32a130.89,130.89,0,0,0,31.83,12.31,108.7,108.7,0,0,0,15.4,2.73c1.63.16,3.27.33,4.9.49v.58H183.15q0-61.34,0-122.68Z" transform="translate(-183.15 -86.92)"/><path class="cls-3" d="M793.66,207.86a10.4,10.4,0,0,1-.49-2.21,73.36,73.36,0,0,0-2.05-14.93,130.84,130.84,0,0,0-71-90.5,124.33,124.33,0,0,0-34.74-11.07c-4-.64-8-1.11-12.07-1.65v-.58H793.66Z" transform="translate(-183.15 -86.92)"/><path class="cls-4" d="M304.09,697.43v-.58h22.09v.59Z" transform="translate(-183.15 -86.92)"/><path class="cls-5" d="M184.17,574.87l-1-.12V570.1c.61.12,1.06.42,1.07,1.1C184.22,572.43,184.19,573.65,184.17,574.87Z" transform="translate(-183.15 -86.92)"/><path class="cls-6" d="M184.14,557.2c0,1,.07,2.05.06,3.08a1.08,1.08,0,0,1-1,1.1v-4.07Z" transform="translate(-183.15 -86.92)"/><path class="cls-7" d="M673.3,86.92v.58c-1.89,0-3.79,0-5.68-.12a4.7,4.7,0,0,1-1.3-.46Z" transform="translate(-183.15 -86.92)"/><path class="cls-8" d="M793.11,232.31c0-1.33,0-2.66,0-4a4.34,4.34,0,0,1,.51-1.28v5.23l-.28,0Z" transform="translate(-183.15 -86.92)"/><path class="cls-9" d="M656.43,87.44l-4,.08v-.59h4.07Q656.44,87.18,656.43,87.44Z" transform="translate(-183.15 -86.92)"/><path class="cls-10" d="M656.43,87.44q0-.26,0-.51h2.91C658.5,87.78,657.43,87.42,656.43,87.44Z" transform="translate(-183.15 -86.92)"/><path class="cls-1" d="M487.61,419c.63.78,1,1.19,1.33,1.67A97.33,97.33,0,0,1,504,477a97.53,97.53,0,0,1-7.18,32.14,92,92,0,0,1-13.72,23.16c-2.44,3-5.06,5.87-7.8,8.61q-34.69,34.78-69.45,69.48Q394.44,621.83,383,633.24A95.53,95.53,0,0,1,354.55,653a97.13,97.13,0,0,1-24.7,7.3,95.45,95.45,0,0,1-90-152.93,98.59,98.59,0,0,1,7.87-8.93q46.49-46.61,93.07-93.13a94.5,94.5,0,0,1,40.17-24.13,83.1,83.1,0,0,1,19.64-3.66c2.8-.15,5.6-.43,8.4-.42a95.33,95.33,0,0,1,51.4,15.06,14.13,14.13,0,0,1,1.46,1.21,5.13,5.13,0,0,1-1.82,2.39q-7.38,7.42-14.79,14.8l-64.12,64.13a29.06,29.06,0,0,0-2.59,2.75,17.9,17.9,0,0,0,11.17,28.73,17.36,17.36,0,0,0,15.46-4.81c1-.94,1.92-1.91,2.88-2.87l76.87-76.86C485.69,420.84,486.54,420.06,487.61,419Z" transform="translate(-183.15 -86.92)"/><path class="cls-1" d="M515.57,391c1.09-1.11,1.9-1.94,2.72-2.75L595.57,311c1-1,1.93-1.91,2.87-2.89a18,18,0,0,0-3.86-27.45c-6.48-4-16.27-3.39-22,2.56-.94,1-1.92,1.92-2.88,2.88l-76.87,76.86c-.81.81-1.64,1.61-2.62,2.58-.63-.83-1.19-1.46-1.64-2.17a96.1,96.1,0,0,1-12.37-29.6A93.85,93.85,0,0,1,474,304.9a94.81,94.81,0,0,1,21.43-53.62,89.8,89.8,0,0,1,6-6.67q46.93-47,93.92-93.93a93.49,93.49,0,0,1,45.7-25.18,90.66,90.66,0,0,1,14-2.11c3.19-.23,6.38-.43,9.57-.35a97,97,0,0,1,35.55,7.6A93.84,93.84,0,0,1,735,155.94a92.48,92.48,0,0,1,19.28,35.44,104.34,104.34,0,0,1,3.52,18.79,81.32,81.32,0,0,1,.29,13.05C756.76,243.59,750.2,262,737.32,278a98.48,98.48,0,0,1-6.92,7.83q-46.92,47-93.92,93.93a93.34,93.34,0,0,1-37.86,23,97.15,97.15,0,0,1-19.85,4.11,95.34,95.34,0,0,1-47.7-7.3,97.22,97.22,0,0,1-12.84-6.77C517.44,392.32,516.67,391.75,515.57,391Z" transform="translate(-183.15 -86.92)"/></svg>