<svg id="Layer_1" data-name="Layer 1" xmlns="http://www.w3.org/2000/svg" viewBox="0 0 729.7 645.4"><defs><style>.cls-1{fill:#fff;}.cls-2{fill:#ff9601;}.cls-3{fill:#fffffe;}.cls-4{fill:#fffefd;}.cls-5{fill:#ffd293;}.cls-6{fill:#ffd294;}.cls-7{fill:#ffd499;}.cls-8{fill:#ffcf8c;}.cls-9{fill:#ffcc83;}.cls-10{fill:#ffd295;}</style></defs><title>quote</title><path class="cls-1" d="M476.2,86.92h379.1a1.14,1.14,0,0,1,0,.57,74.34,74.34,0,0,0-18.67,6.22,209.4,209.4,0,0,0-24.25,13.73c-12.64,8.12-24.82,16.9-36.76,26-18.1,13.81-36,27.84-52.92,43.13a484.94,484.94,0,0,0-62.45,67.93,413.49,413.49,0,0,0-66.79,132,446.47,446.47,0,0,0-17.1,96.44c-.58,8.4-.92,16.83-1.08,25.25-.14,7.45.09,14.91.23,22.37.15,7.95.86,15.85,1.75,23.75a269.08,269.08,0,0,0,5.36,31.17,229.64,229.64,0,0,0,30,72A203.31,203.31,0,0,0,651,692.38c28.29,24.42,61.22,37.28,98.43,39.39a1.15,1.15,0,0,1,0,.54h-371a1,1,0,0,1,0-.55q7.39-.49,14.71-1.65a136.47,136.47,0,0,0,39.69-12.61,145.24,145.24,0,0,0,35.69-25.25,142.16,142.16,0,0,0,28.54-37.53c10-19.2,14.5-39.73,14.93-61.25a174.12,174.12,0,0,0-.87-19.44A152.28,152.28,0,0,0,507,550c-10.05-39.06-36.53-68.86-63.19-84.81a126.14,126.14,0,0,0-52.23-17.28c-3.66-.38-7.33-.63-11-.87a62.76,62.76,0,0,0-13.62.57A91.61,91.61,0,0,0,349,452.42c-1.27.47-2.56.9-3.86,1.26a8.06,8.06,0,0,1-1.7.11,34.37,34.37,0,0,1-1.58-6.59,129.34,129.34,0,0,1-1.59-19.38,249.26,249.26,0,0,1,1.47-31.91,231.87,231.87,0,0,1,3.79-24.09,246,246,0,0,1,27.51-71.54A307.46,307.46,0,0,1,417,241.89c18.91-20,39.83-37.66,62.08-53.79q15.06-10.92,30.82-20.81a18.84,18.84,0,0,0,8.09-9.92c.88-2.46,1.8-4.91,2.73-7.35a18,18,0,0,0,1.18-7.12,48.77,48.77,0,0,0-2.35-13.4,79.71,79.71,0,0,0-13.64-24.82,51.81,51.81,0,0,0-6.22-6.49,44.13,44.13,0,0,0-23.44-10.7A1.08,1.08,0,0,1,476.2,86.92Z" transform="translate(-183.15 -86.92)"/><path class="cls-2" d="M476.21,87.49a44.13,44.13,0,0,1,23.44,10.7,51.81,51.81,0,0,1,6.22,6.49,79.71,79.71,0,0,1,13.64,24.82,48.77,48.77,0,0,1,2.35,13.4,18,18,0,0,1-1.18,7.12c-.93,2.44-1.85,4.89-2.73,7.35a18.84,18.84,0,0,1-8.09,9.92Q494.1,177.15,479,188.1c-22.25,16.13-43.17,33.8-62.08,53.79a307.46,307.46,0,0,0-43.91,58.4,246,246,0,0,0-27.51,71.54,231.87,231.87,0,0,0-3.79,24.09,249.26,249.26,0,0,0-1.47,31.91,129.34,129.34,0,0,0,1.59,19.38,34.37,34.37,0,0,0,1.58,6.59,8.06,8.06,0,0,0,1.7-.11c1.3-.37,2.59-.79,3.86-1.26a91.61,91.61,0,0,1,17.92-4.79,62.76,62.76,0,0,1,13.62-.57c3.67.24,7.34.49,11,.87a126.14,126.14,0,0,1,52.23,17.28C470.47,481.17,496.94,511,507,550a152.28,152.28,0,0,1,4.23,24,174.12,174.12,0,0,1,.87,19.44c-.43,21.52-5,42-14.93,61.25a142.16,142.16,0,0,1-28.54,37.53,145.24,145.24,0,0,1-35.69,25.25,136.47,136.47,0,0,1-39.69,12.61q-7.32,1.15-14.71,1.65c-.67,0-1.34-.09-2-.09h-16.1c-.76,0-1.53.06-2.29.09a180.29,180.29,0,0,1-23.32-2.85,158.12,158.12,0,0,1-37.74-12.15,166.24,166.24,0,0,1-49.38-35.7c-22.12-22.93-38.19-49.58-48.87-79.54a246.31,246.31,0,0,1-10.3-39,257.74,257.74,0,0,1-3.73-29.65c-.23-3.57-.37-7.15-.65-10.72-.13-1.7,0-3.48-1-5V500.91c1.32-3.24,1.16-6.61.94-10q.49-15,1.89-29.86,1.21-13,3.16-25.95,3-20,7.89-39.57A407.19,407.19,0,0,1,254.77,265c24.34-36.17,53.53-68,86.42-96.5,11.79-10.22,24-19.92,36.32-29.5,13.53-10.54,27.29-20.77,41.64-30.19a214.61,214.61,0,0,1,26.16-15.07A71.72,71.72,0,0,1,464,87.5c1.39,0,2.81.27,4.07-.58h3.49C473,87.73,474.63,87.53,476.21,87.49Zm10.45,53.68c-.13-.57-.2-1-.35-1.49a48.19,48.19,0,0,0-7.95-14.11,13.57,13.57,0,0,0-2.08-2,10.27,10.27,0,0,0-3.59-1.84,9.75,9.75,0,0,0-6.25.4,65.62,65.62,0,0,0-11.61,5.3c-5.52,3.21-11,6.44-16.41,9.91-12.86,8.33-25.13,17.48-37.22,26.87-15.69,12.18-31.24,24.54-46,37.9a457.19,457.19,0,0,0-61.52,67.61,375.07,375.07,0,0,0-51.54,96.21,402.18,402.18,0,0,0-21.68,99c-.83,9-1.37,18-1.69,27-.38,10.75-.43,21.5.21,32.25.55,9.39,1.5,18.72,3,28a212.06,212.06,0,0,0,11.71,43.67,183.91,183.91,0,0,0,39,61.44A134.68,134.68,0,0,0,306.22,683a126.18,126.18,0,0,0,50.46,14.39,132.78,132.78,0,0,0,26.69-.44,109.3,109.3,0,0,0,18.45-3.86,102.25,102.25,0,0,0,33.51-17.57A115,115,0,0,0,462.87,645c9.39-15.32,13.78-32.1,14.4-49.95a134.14,134.14,0,0,0-1-20.88,113.18,113.18,0,0,0-5.72-24.55c-6.65-18.61-17.88-34-32.93-46.71a89.85,89.85,0,0,0-41.23-19.69,124.28,124.28,0,0,0-19-2.05,27.07,27.07,0,0,0-8.62,1c-3,.86-5.91,1.83-8.86,2.77-1.29.41-2.55.93-3.86,1.28-3.45.94-6.92,1.83-10.39,2.72a21.68,21.68,0,0,1-5.73.83,28.16,28.16,0,0,1-11.53-2.62A30.38,30.38,0,0,1,315.73,476a48.73,48.73,0,0,1-5.82-12.94,97.08,97.08,0,0,1-3.39-18,205,205,0,0,1-1-24.67c.09-5.91.45-11.81.77-17.71a244.11,244.11,0,0,1,2.92-25.38,268.35,268.35,0,0,1,11.4-45.28c10.44-30.21,25.8-57.76,45.1-83.17,17.72-23.34,38.12-44.1,60.41-63.06a564,564,0,0,1,58.13-43C485.05,142.29,485.83,141.73,486.66,141.16Z" transform="translate(-183.15 -86.92)"/><path class="cls-2" d="M749.45,731.78c-37.22-2.12-70.14-15-98.43-39.39a203.31,203.31,0,0,1-38.39-44.9,229.64,229.64,0,0,1-30-72,269.08,269.08,0,0,1-5.36-31.17c-.89-7.9-1.6-15.8-1.75-23.75-.14-7.46-.37-14.92-.23-22.37.16-8.42.5-16.85,1.08-25.25a446.47,446.47,0,0,1,17.1-96.44,413.49,413.49,0,0,1,66.79-132,484.94,484.94,0,0,1,62.45-67.93c16.9-15.29,34.81-29.33,52.92-43.13,11.94-9.11,24.12-17.88,36.76-26a209.4,209.4,0,0,1,24.25-13.73,74.34,74.34,0,0,1,18.67-6.22c1.39,0,2.8.21,4.08-.57h4.07c1.27.88,2.7.56,4.08.56l2.56.49a43.75,43.75,0,0,1,25.19,14.48,80.1,80.1,0,0,1,15.25,26.18,26.38,26.38,0,0,1,1.85,7.88c0,.33.31.66.48,1V148c-.08,0-.22.07-.25.14-1,2.61-2,5.2-2.9,7.85-1.76,5.43-5.24,9.23-10.06,12.27a504.35,504.35,0,0,0-67,50,365.89,365.89,0,0,0-42.91,44.94,276.1,276.1,0,0,0-38.66,64,241.82,241.82,0,0,0-18.93,80.76,246.51,246.51,0,0,0,0,29.06,82.37,82.37,0,0,0,1.71,13.24,8.25,8.25,0,0,0,1.2,3.63,12.14,12.14,0,0,0,4.18-1c3.5-1.14,7-2.37,10.5-3.37a64.75,64.75,0,0,1,21-2.48,165.28,165.28,0,0,1,20.22,2.05,126.19,126.19,0,0,1,42.34,15.41,140.45,140.45,0,0,1,35.82,30.23A138.59,138.59,0,0,1,895,539.46,155.57,155.57,0,0,1,903.33,590a148.7,148.7,0,0,1-2,25.75,130.67,130.67,0,0,1-16.52,45.61,146.39,146.39,0,0,1-33.1,38.29c-23.77,19.65-51.12,30.23-81.85,32.16-.76,0-1.53-.08-2.29-.08H752C751.17,731.69,750.31,731.75,749.45,731.78ZM877.8,141.16c.06-.31.11-.41.09-.49a10.65,10.65,0,0,0-.31-1.11,51.22,51.22,0,0,0-7.84-13.84,12.58,12.58,0,0,0-2.51-2.39,8.76,8.76,0,0,0-8.22-1.56,25,25,0,0,0-2.75.91c-3.52,1.6-7.09,3.12-10.51,4.93A271.54,271.54,0,0,0,817,145.78c-18.55,13.06-36.44,27-53.93,41.41a468.21,468.21,0,0,0-63.75,63.49,393.41,393.41,0,0,0-47.3,72,382.64,382.64,0,0,0-37,116.28c-.88,6-1.7,12.08-2.35,18.14-.7,6.55-1.24,13.11-1.72,19.68-.34,4.64-.48,9.29-.71,13.93a313.56,313.56,0,0,0,.95,45,240.84,240.84,0,0,0,4.41,28.39,201.59,201.59,0,0,0,17.53,49.7,176.79,176.79,0,0,0,38.34,50.73,126,126,0,0,0,42.75,25.81,135.21,135.21,0,0,0,45.05,7.48,146.93,146.93,0,0,0,14.78-.87,98.56,98.56,0,0,0,31-8.34,114,114,0,0,0,51.83-48.31c7.68-14.39,11.16-29.84,11.64-46a134.72,134.72,0,0,0-.93-19.14,109.31,109.31,0,0,0-7.43-29.47c-7.59-18.47-19.65-33.48-35.47-45.53a90.26,90.26,0,0,0-37.28-16.8,115.94,115.94,0,0,0-18.16-2,35.9,35.9,0,0,0-5.5.27,53.88,53.88,0,0,0-12,3.26c-1.46.52-2.9,1.08-4.39,1.5-3.45,1-6.91,1.89-10.39,2.72a24.36,24.36,0,0,1-5.15.77,27.28,27.28,0,0,1-15.9-4.71A32.27,32.27,0,0,1,705.84,474a52.84,52.84,0,0,1-5.19-13.21,120.78,120.78,0,0,1-3.45-26.45,289.23,289.23,0,0,1,1.59-43.52c.85-7.12,1.86-14.21,3.22-21.24a274.86,274.86,0,0,1,14.08-48.45,304.55,304.55,0,0,1,43.34-75.28c18.25-23.54,39.22-44.42,62.07-63.46a564.09,564.09,0,0,1,54.35-39.84C876.56,142.1,877.24,141.57,877.8,141.16Z" transform="translate(-183.15 -86.92)"/><path class="cls-1" d="M769.84,731.77c30.74-1.93,58.08-12.51,81.85-32.16a146.39,146.39,0,0,0,33.1-38.29,130.67,130.67,0,0,0,16.52-45.61,148.7,148.7,0,0,0,2-25.75A155.57,155.57,0,0,0,895,539.46a138.59,138.59,0,0,0-25.9-44.75,140.45,140.45,0,0,0-35.82-30.23,126.19,126.19,0,0,0-42.34-15.41A165.28,165.28,0,0,0,770.68,447a64.75,64.75,0,0,0-21,2.48c-3.54,1-7,2.24-10.5,3.37a12.14,12.14,0,0,1-4.18,1,8.25,8.25,0,0,1-1.2-3.63A82.37,82.37,0,0,1,732.13,437a246.51,246.51,0,0,1,0-29.06,241.82,241.82,0,0,1,18.93-80.76,276.1,276.1,0,0,1,38.66-64,365.89,365.89,0,0,1,42.91-44.94,504.35,504.35,0,0,1,67-50c4.82-3,8.31-6.84,10.06-12.27.86-2.65,1.92-5.24,2.9-7.85,0-.07.16-.1.25-.14V732.32h-143A1.06,1.06,0,0,1,769.84,731.77Z" transform="translate(-183.15 -86.92)"/><path class="cls-1" d="M464,87.5a71.72,71.72,0,0,0-18.67,6.22,214.61,214.61,0,0,0-26.16,15.07C404.8,118.2,391,128.44,377.51,139c-12.31,9.58-24.53,19.28-36.32,29.5C308.3,197,279.1,228.8,254.77,265A407.19,407.19,0,0,0,197,395.53q-4.85,19.61-7.89,39.57Q187.17,448,186,461q-1.38,14.91-1.89,29.86l-.94.11q0-202,0-404.1H464Z" transform="translate(-183.15 -86.92)"/><path class="cls-3" d="M183.15,517.19c1,1.54.86,3.33,1,5,.28,3.57.43,7.15.65,10.72a257.74,257.74,0,0,0,3.73,29.65,246.31,246.31,0,0,0,10.3,39c10.68,30,26.75,56.62,48.87,79.54a166.24,166.24,0,0,0,49.38,35.7,158.12,158.12,0,0,0,37.74,12.15,180.29,180.29,0,0,0,23.32,2.85,1.24,1.24,0,0,1,0,.54h-175Z" transform="translate(-183.15 -86.92)"/><path class="cls-4" d="M912.86,137.51c-.17-.33-.47-.65-.48-1a26.38,26.38,0,0,0-1.85-7.88,80.1,80.1,0,0,0-15.25-26.18A43.75,43.75,0,0,0,870.08,88l-2.56-.49a1.06,1.06,0,0,1,0-.56h45.35Z" transform="translate(-183.15 -86.92)"/><path class="cls-5" d="M358.17,732.32a1.24,1.24,0,0,0,0-.54c.76,0,1.53-.09,2.29-.09h16.1c.67,0,1.34.06,2,.09a1,1,0,0,0,0,.55Z" transform="translate(-183.15 -86.92)"/><path class="cls-6" d="M769.84,731.77a1.06,1.06,0,0,0,0,.55H749.47a1.15,1.15,0,0,0,0-.54c.86,0,1.72-.08,2.58-.09h15.53C768.32,731.69,769.08,731.74,769.84,731.77Z" transform="translate(-183.15 -86.92)"/><path class="cls-7" d="M183.15,491l.94-.11c.22,3.38.38,6.76-.94,10Z" transform="translate(-183.15 -86.92)"/><path class="cls-8" d="M476.21,87.49c-1.58,0-3.19.25-4.67-.56h4.65A1.08,1.08,0,0,0,476.21,87.49Z" transform="translate(-183.15 -86.92)"/><path class="cls-9" d="M464,87.5v-.58h4.07C466.79,87.77,465.37,87.51,464,87.5Z" transform="translate(-183.15 -86.92)"/><path class="cls-10" d="M859.36,86.92c-1.28.78-2.69.59-4.08.57a1.14,1.14,0,0,0,0-.57Z" transform="translate(-183.15 -86.92)"/><path class="cls-8" d="M867.5,86.92a1.06,1.06,0,0,0,0,.56c-1.39,0-2.82.31-4.08-.56Z" transform="translate(-183.15 -86.92)"/><path class="cls-3" d="M486.66,141.16c-.83.57-1.61,1.13-2.41,1.65a564,564,0,0,0-58.13,43c-22.29,19-42.69,39.72-60.41,63.06-19.29,25.41-34.65,53-45.1,83.17a268.35,268.35,0,0,0-11.4,45.28,244.11,244.11,0,0,0-2.92,25.38c-.32,5.9-.68,11.8-.77,17.71a205,205,0,0,0,1,24.67,97.08,97.08,0,0,0,3.39,18A48.73,48.73,0,0,0,315.73,476a30.38,30.38,0,0,0,12.67,11.22,28.16,28.16,0,0,0,11.53,2.62,21.68,21.68,0,0,0,5.73-.83c3.47-.89,6.94-1.78,10.39-2.72,1.3-.35,2.57-.87,3.86-1.28,2.95-.94,5.89-1.92,8.86-2.77a27.07,27.07,0,0,1,8.62-1,124.28,124.28,0,0,1,19,2.05A89.85,89.85,0,0,1,437.65,503c15,12.67,26.28,28.09,32.93,46.71a113.18,113.18,0,0,1,5.72,24.55,134.14,134.14,0,0,1,1,20.88c-.62,17.85-5,34.62-14.4,49.95a115,115,0,0,1-27.55,30.44,102.25,102.25,0,0,1-33.51,17.57,109.3,109.3,0,0,1-18.45,3.86,132.78,132.78,0,0,1-26.69.44A126.18,126.18,0,0,1,306.22,683a134.68,134.68,0,0,1-33.55-25.7,183.91,183.91,0,0,1-39-61.44A212.06,212.06,0,0,1,222,552.16c-1.48-9.29-2.44-18.62-3-28-.63-10.75-.58-21.51-.21-32.25.31-9,.86-18,1.69-27a402.18,402.18,0,0,1,21.68-99,375.07,375.07,0,0,1,51.54-96.21,457.19,457.19,0,0,1,61.52-67.61c14.73-13.36,30.27-25.72,46-37.9,12.1-9.39,24.36-18.55,37.22-26.87,5.36-3.47,10.89-6.7,16.41-9.91a65.62,65.62,0,0,1,11.61-5.3,9.75,9.75,0,0,1,6.25-.4,10.27,10.27,0,0,1,3.59,1.84,13.57,13.57,0,0,1,2.08,2,48.19,48.19,0,0,1,7.95,14.11C486.47,140.12,486.53,140.6,486.66,141.16Z" transform="translate(-183.15 -86.92)"/><path class="cls-3" d="M877.8,141.16c-.57.41-1.24.93-2,1.4A564.09,564.09,0,0,0,821.5,182.4c-22.85,19-43.82,39.93-62.07,63.46a304.55,304.55,0,0,0-43.34,75.28A274.86,274.86,0,0,0,702,369.59c-1.36,7-2.38,14.12-3.22,21.24a289.23,289.23,0,0,0-1.59,43.52,120.78,120.78,0,0,0,3.45,26.45A52.84,52.84,0,0,0,705.84,474a32.27,32.27,0,0,0,10.09,11.07,27.28,27.28,0,0,0,15.9,4.71A24.36,24.36,0,0,0,737,489c3.48-.83,6.94-1.76,10.39-2.72,1.49-.41,2.94-1,4.39-1.5a53.88,53.88,0,0,1,12-3.26,35.9,35.9,0,0,1,5.5-.27,115.94,115.94,0,0,1,18.16,2,90.26,90.26,0,0,1,37.28,16.8c15.82,12,27.88,27.06,35.47,45.53a109.31,109.31,0,0,1,7.43,29.47,134.72,134.72,0,0,1,.93,19.14c-.48,16.2-4,31.66-11.64,46a114,114,0,0,1-51.83,48.31,98.56,98.56,0,0,1-31,8.34,146.93,146.93,0,0,1-14.78.87,135.21,135.21,0,0,1-45.05-7.48,126,126,0,0,1-42.75-25.81,176.79,176.79,0,0,1-38.34-50.73,201.59,201.59,0,0,1-17.53-49.7,240.84,240.84,0,0,1-4.41-28.39,313.56,313.56,0,0,1-.95-45c.23-4.64.37-9.29.71-13.93.49-6.57,1-13.13,1.72-19.68.65-6.06,1.47-12.11,2.35-18.14a382.64,382.64,0,0,1,37-116.28,393.41,393.41,0,0,1,47.3-72,468.21,468.21,0,0,1,63.75-63.49c17.49-14.44,35.38-28.36,53.93-41.41a271.54,271.54,0,0,1,28.71-18.17c3.41-1.81,7-3.33,10.51-4.93a25,25,0,0,1,2.75-.91,8.76,8.76,0,0,1,8.22,1.56,12.58,12.58,0,0,1,2.51,2.39,51.22,51.22,0,0,1,7.84,13.84,10.65,10.65,0,0,1,.31,1.11C877.92,140.75,877.86,140.86,877.8,141.16Z" transform="translate(-183.15 -86.92)"/></svg>