<svg id="Layer_1" data-name="Layer 1" xmlns="http://www.w3.org/2000/svg" viewBox="0 0 592.78 365.72"><defs><style>.cls-1{fill:#fff;}.cls-2{fill:#fefefe;}.cls-3{fill:#cbcbcb;}</style></defs><title>text</title><path class="cls-1" d="M621,452.36H182.86v-6.11h73.2l28.12-81.62H420.46l29.71,81.52h74.87l-.5-1.32L484.92,340.4,390.6,91.94c-.67-1.76-1.27-3.54-1.91-5.31H775.64V446c-1.12-2.55-2.3-5.08-3.36-7.65a138.06,138.06,0,0,1-8.42-27.71,165.36,165.36,0,0,1-2.39-23.1c-.35-8.42-.63-16.85-.6-25.28.09-24.42.34-48.84.56-73.25.12-13,.08-26.06-1.2-39.05a157.51,157.51,0,0,0-2.93-18.63,53.09,53.09,0,0,0-17.85-29.38,80.11,80.11,0,0,0-20.09-12.63c-9.57-4.21-19.71-6.23-30-7.57-6.44-.83-12.91-1.31-19.4-1.55a228.18,228.18,0,0,0-39.88,1.5,132.82,132.82,0,0,0-22.35,5A76.73,76.73,0,0,0,566,218.47a107.09,107.09,0,0,0-11.51,23.38c-1.4,4-2.59,8-3.92,12.12l59.38,11.28c.23-.62.42-1.11.59-1.6A64.14,64.14,0,0,1,619,246.73a31.47,31.47,0,0,1,16.1-11.59,59,59,0,0,1,18.2-2.5,109.72,109.72,0,0,1,14.21.84,55.67,55.67,0,0,1,13.09,3.15A23,23,0,0,1,694,249.75a42.24,42.24,0,0,1,2.82,11.07,115.62,115.62,0,0,1,.52,14.95,4.43,4.43,0,0,1-.15.72c-3.4,1.24-6.82,2.59-10.31,3.74-13.85,4.55-28,7.78-42.3,10.78-9.75,2.06-19.55,3.88-29.2,6.4a191.54,191.54,0,0,0-28.06,9.3,70.6,70.6,0,0,0-22.44,14.75c-12.62,12.7-19.12,28.19-20.68,45.88a91.14,91.14,0,0,0,.53,20.44,70.81,70.81,0,0,0,7.46,24c11.15,20.87,28.51,33.45,51.6,38.27A116.54,116.54,0,0,0,621,452.1Q621,452.23,621,452.36Z" transform="translate(-182.86 -86.63)"/><path d="M388.69,86.63c.63,1.77,1.24,3.55,1.91,5.31L484.92,340.4l39.63,104.43.5,1.32H450.18l-29.71-81.52H284.18l-28.12,81.62h-73.2V446a7.44,7.44,0,0,0,.8-1.29q18.2-49.25,36.38-98.52L315.32,88c.17-.45.27-.92.4-1.38Zm-37.16,84.28-.24,0L305.37,304h93Z" transform="translate(-182.86 -86.63)"/><path d="M621,452.1A116.54,116.54,0,0,1,603.83,450c-23.09-4.82-40.45-17.39-51.6-38.27a70.81,70.81,0,0,1-7.46-24,91.14,91.14,0,0,1-.53-20.44c1.56-17.69,8.06-33.18,20.68-45.88a70.6,70.6,0,0,1,22.44-14.75,191.54,191.54,0,0,1,28.06-9.3c9.65-2.52,19.45-4.34,29.2-6.4,14.25-3,28.44-6.23,42.3-10.78,3.49-1.15,6.9-2.5,10.31-3.74a4.43,4.43,0,0,0,.15-.72,115.62,115.62,0,0,0-.52-14.95A42.24,42.24,0,0,0,694,249.75a23,23,0,0,0-13.41-13.12,55.67,55.67,0,0,0-13.09-3.15,109.72,109.72,0,0,0-14.21-.84,59,59,0,0,0-18.2,2.5A31.47,31.47,0,0,0,619,246.73a64.14,64.14,0,0,0-8.52,16.92c-.17.5-.37,1-.59,1.6L550.53,254c1.33-4.13,2.51-8.16,3.92-12.12A107.09,107.09,0,0,1,566,218.47a76.73,76.73,0,0,1,41.78-31.82,132.82,132.82,0,0,1,22.35-5,228.18,228.18,0,0,1,39.88-1.5c6.49.24,13,.71,19.4,1.55,10.3,1.33,20.44,3.35,30,7.57a80.11,80.11,0,0,1,20.09,12.63,53.09,53.09,0,0,1,17.85,29.38,157.51,157.51,0,0,1,2.93,18.63c1.28,13,1.32,26,1.2,39.05-.23,24.42-.47,48.84-.56,73.25,0,8.43.25,16.86.6,25.28a165.36,165.36,0,0,0,2.39,23.1,138.06,138.06,0,0,0,8.42,27.71c1.06,2.57,2.24,5.1,3.36,7.65v.29H711.15c-.16-.38-.31-.69-.41-1-.86-2.57-1.78-5.11-2.55-7.71-1.78-6-3.47-12.07-5.21-18.11-.14-.48-.32-.94-.59-1.73-.5.6-.79,1-1.12,1.34a130.72,130.72,0,0,1-11.46,10.27,105.09,105.09,0,0,1-33.59,18.26,102.29,102.29,0,0,1-25.65,4.52Zm76.35-130.81c-.32.08-.59.12-.86.21-10.66,3.53-21.57,6.14-32.48,8.77-7.8,1.88-15.6,3.77-23.36,5.83a71.2,71.2,0,0,0-15.46,5.79,30.12,30.12,0,0,0-13.68,14.73c-2.31,5.24-2.58,10.76-1.92,16.38,1.54,13.16,11.6,24.43,22.57,28.35a42.19,42.19,0,0,0,22.06,1.46,56.37,56.37,0,0,0,28.25-14.29,41.26,41.26,0,0,0,13.1-23.24,92.71,92.71,0,0,0,1.5-15.45c.21-9.3.23-18.6.32-27.9C697.38,321.74,697.34,321.56,697.32,321.29Z" transform="translate(-182.86 -86.63)"/><path class="cls-1" d="M315.72,86.63c-.13.46-.23.93-.4,1.38L220,346.16q-18.18,49.26-36.38,98.52a7.44,7.44,0,0,1-.8,1.29q0-179.61,0-359.33Z" transform="translate(-182.86 -86.63)"/><path class="cls-2" d="M630.58,452.09a102.29,102.29,0,0,0,25.65-4.52,105.09,105.09,0,0,0,33.59-18.26A130.72,130.72,0,0,0,701.27,419c.34-.34.62-.73,1.12-1.34.27.79.45,1.25.59,1.73,1.73,6,3.43,12.09,5.21,18.11.76,2.59,1.69,5.14,2.55,7.71.11.32.25.62.41,1h64.49v6.11H630.57A2.16,2.16,0,0,1,630.58,452.09Z" transform="translate(-182.86 -86.63)"/><path class="cls-3" d="M630.58,452.09a2.16,2.16,0,0,0,0,.27H621q0-.13,0-.26Z" transform="translate(-182.86 -86.63)"/><path class="cls-2" d="M351.53,170.92l46.84,133h-93l45.91-133Z" transform="translate(-182.86 -86.63)"/><path class="cls-2" d="M697.32,321.29c0,.27.06.46.05.64-.09,9.3-.11,18.6-.32,27.9a92.71,92.71,0,0,1-1.5,15.45,41.26,41.26,0,0,1-13.1,23.24,56.37,56.37,0,0,1-28.25,14.29,42.19,42.19,0,0,1-22.06-1.46c-11-3.92-21-15.19-22.57-28.35-.66-5.62-.39-11.14,1.92-16.38a30.12,30.12,0,0,1,13.68-14.73,71.2,71.2,0,0,1,15.46-5.79c7.75-2.06,15.56-4,23.36-5.83,10.91-2.63,21.82-5.24,32.48-8.77C696.73,321.41,697,321.36,697.32,321.29Z" transform="translate(-182.86 -86.63)"/></svg>