<svg id="Layer_1" data-name="Layer 1" xmlns="http://www.w3.org/2000/svg" viewBox="0 0 715.75 508.18"><defs><style>.cls-1{fill:#87929a;}.cls-2{fill:#fff;}.cls-3{fill:#fdfefe;}.cls-4{fill:#fcfcfc;}.cls-5{fill:#c4d6d9;}.cls-6{fill:#c9ccd0;}.cls-7{fill:#cfd6d9;}.cls-8{fill:#cac4c9;}.cls-9{fill:#b5aeb4;}.cls-10{fill:#b6afb5;}.cls-11{fill:#d8d0d4;}.cls-12{fill:#ccdde0;}.cls-13{fill:#bccdd1;}.cls-14{fill:#b5c8cc;}</style></defs><title>video</title><path class="cls-1" d="M898.9,227.63v321a6.93,6.93,0,0,0-.5,4.12c-.19,1.33-.29,2.69-.59,4A49.3,49.3,0,0,1,858.28,594l-.77.15-2.75.39-10.54,0A52.75,52.75,0,0,1,828.37,590Q800.8,577.27,773.2,564.6q-16.76-7.71-33.53-15.43a7.41,7.41,0,0,0-3.07-1.06l-1,4a49.44,49.44,0,0,1-37.65,36.07,62.51,62.51,0,0,1-13,1.09H236.1c-.87,0-1.74,0-2.62,0a47.07,47.07,0,0,1-9.53-.89l-.76-.19-5.63-1.44-.75-.32q-25.9-9.85-32-36.86a22.16,22.16,0,0,0-.73-2.8c-.15-.42-.61-.3-.9,0v-1.16c.65.37.76-.13.9-.57a1.91,1.91,0,0,0-.9-2.34V233.45c1.37-1.1,1.18-2.61,1.09-4.1q3.47-23,23.16-35.5a48.6,48.6,0,0,1,17.54-6.63l.76-.18c3.58-.19,7.15-.53,10.73-.53q183.09,0,366.18,0c1.26,0,2.52,0,3.78.05l.66-.06c.76-.94.44-2,.44-3.08q0-27.32,0-54.65a25.75,25.75,0,0,0-.06-2.61,9.93,9.93,0,0,0-9.66-9.11c-1.36,0-2.71,0-4.07,0h-391c-1.45,0-2.91,0-4.36,0a15,15,0,0,1-14.07-11.08c-.08-.28-.14-.56-.21-.85a1.16,1.16,0,0,0-1-1.27V100.3a1.51,1.51,0,0,0,1.07-1.77,15,15,0,0,1,11.25-11.08c.55-.15,1.09-.35,1.63-.52H600a5.31,5.31,0,0,0,3.49.59l1.06.15.78.24c13.63,3,23.26,10.91,28.92,23.61a38.1,38.1,0,0,1,3.1,15.82c0,17,0,34.05,0,51.08,0,2,0,4.06,0,6.09a10.86,10.86,0,0,0,.4,1.93l.66.08c.39,0,.77,0,1.16,0h47.92c1.06,0,2.12.12,3.18.18l.79.11a43.22,43.22,0,0,1,9.05,1.41l.74.28a49.38,49.38,0,0,1,34.78,37.29c.14.65.37,1.29.55,1.93.22.36.45.31.69,0L782.47,207l46.2-21.26a49.5,49.5,0,0,1,68.46,30.69,24,24,0,0,1,1.24,6.55A8.46,8.46,0,0,0,898.9,227.63ZM852,211.08l-.86-.16a19.43,19.43,0,0,0-9.88,1.88l-10.82,5-89.74,41.3c-1.13.52-2.25,1.08-3.5,1.68,0,1.55-.06,3-.06,4.43q0,122.79,0,245.58c0,.68,0,1.36,0,2s.12,1.52.18,2.3c.87.43,1.64.84,2.43,1.2l100.83,46.4a30.79,30.79,0,0,0,3,1.22,19.49,19.49,0,0,0,25.18-14.51,36.23,36.23,0,0,0,.43-7.24q0-154.33,0-308.65a32.16,32.16,0,0,0,0-3.77,25.59,25.59,0,0,0-1-5.41C865.51,216.69,860,212.33,852,211.08Zm-391.41,5.37H236.8c-1.55,0-3.1,0-4.65,0a19.34,19.34,0,0,0-18.3,18.41c-.06,1.35,0,2.71,0,4.07q0,149,0,298c0,1.26,0,2.52,0,3.78a19.24,19.24,0,0,0,16.68,18.42,40.46,40.46,0,0,0,5.5.29H684.86c1,0,1.94,0,2.91,0a19.51,19.51,0,0,0,19.38-19.82c-.08-2.52,0-5,0-7.56q0-144.19,0-288.37c0-2.71,0-5.43,0-8.14A19.41,19.41,0,0,0,688,216.47H460.64Z" transform="translate(-183.15 -86.92)"/><path class="cls-2" d="M224.95,187.21a48.6,48.6,0,0,0-17.54,6.63q-19.66,12.46-23.16,35.5l-1.09,1.19q0-62.8,0-125.59l1,.1c.07.28.13.57.21.85A15,15,0,0,0,198.39,117c1.45.08,2.91,0,4.36,0h391c1.36,0,2.71,0,4.07,0a9.93,9.93,0,0,1,9.66,9.11,25.75,25.75,0,0,1,.06,2.61q0,27.32,0,54.65c0,1,.31,2.14-.44,3.08l-.66.06c-1.26,0-2.52-.05-3.78-.05q-183.09,0-366.18,0c-3.58,0-7.15.35-10.73.53Z" transform="translate(-183.15 -86.92)"/><path class="cls-2" d="M637.8,186.45a10.86,10.86,0,0,1-.4-1.93c-.05-2,0-4.06,0-6.09,0-17,0-34.05,0-51.08a38.1,38.1,0,0,0-3.1-15.82C628.64,98.81,619,90.89,605.38,87.91l-.78-.24-1.06-.15q0-.3,0-.59H898.9V223l-.53,0a24,24,0,0,0-1.24-6.55,49.5,49.5,0,0,0-68.46-30.69L782.47,207l-45.15,20.76-.69,0c-.19-.64-.41-1.28-.55-1.93a49.38,49.38,0,0,0-34.78-37.29l-.74-.28a43.2,43.2,0,0,0-9.05-1.41l-.79-.11c-1.06-.06-2.12-.18-3.18-.18H639.62c-.39,0-.77,0-1.16,0Z" transform="translate(-183.15 -86.92)"/><path class="cls-2" d="M224,588.4a47.07,47.07,0,0,0,9.53.89c.87,0,1.74,0,2.62,0H684.93a62.51,62.51,0,0,0,13-1.09,49.44,49.44,0,0,0,37.65-36.07l1-4a7.41,7.41,0,0,1,3.07,1.06q16.77,7.7,33.53,15.43Q800.78,577.3,828.37,590a52.75,52.75,0,0,0,15.85,4.56,2,2,0,0,1,0,.55H183.15q0-24.13,0-48.26c.29-.35.74-.47.9,0a22.16,22.16,0,0,1,.73,2.8q6.13,27,32,36.86l.75.32,5.63,1.44Z" transform="translate(-183.15 -86.92)"/><path class="cls-3" d="M858.28,594a49.3,49.3,0,0,0,39.53-37.33c.3-1.31.39-2.67.59-4h.25l.25-.05V595.1H854.71a4,4,0,0,1,0-.52l2.75-.39Z" transform="translate(-183.15 -86.92)"/><path class="cls-4" d="M197.11,86.92c-.54.18-1.08.38-1.63.52a15,15,0,0,0-11.25,11.08l-1.07.61V86.92Z" transform="translate(-183.15 -86.92)"/><path class="cls-5" d="M854.76,594.58a4,4,0,0,0,0,.52H844.25a2,2,0,0,0,0-.55Z" transform="translate(-183.15 -86.92)"/><path class="cls-6" d="M183.15,230.54l1.09-1.19c.09,1.49.27,3-1.09,4.1Z" transform="translate(-183.15 -86.92)"/><path class="cls-6" d="M898.37,222.94l.53,0v4.65A8.46,8.46,0,0,1,898.37,222.94Z" transform="translate(-183.15 -86.92)"/><path class="cls-7" d="M183.15,542.77a1.91,1.91,0,0,1,.9,2.34h-.9Z" transform="translate(-183.15 -86.92)"/><path class="cls-7" d="M898.9,552.66l-.25.05h-.25a6.93,6.93,0,0,1,.5-4.12Z" transform="translate(-183.15 -86.92)"/><path class="cls-8" d="M603.53,86.92q0,.3,0,.59a5.31,5.31,0,0,1-3.49-.59Z" transform="translate(-183.15 -86.92)"/><path class="cls-7" d="M183.15,99.14l1.07-.61a1.51,1.51,0,0,1-1.07,1.77Z" transform="translate(-183.15 -86.92)"/><path class="cls-7" d="M184.11,105.05l-1-.1v-1.16A1.16,1.16,0,0,1,184.11,105.05Z" transform="translate(-183.15 -86.92)"/><path class="cls-2" d="M183.15,545.1h.9c-.14.44-.25.94-.9.57Z" transform="translate(-183.15 -86.92)"/><path class="cls-2" d="M460.64,216.45H688a19.41,19.41,0,0,1,19.16,19.08c0,2.71,0,5.43,0,8.14q0,144.19,0,288.37c0,2.52-.05,5,0,7.56a19.51,19.51,0,0,1-19.38,19.82c-1,0-1.94,0-2.91,0H236a40.46,40.46,0,0,1-5.5-.29,19.24,19.24,0,0,1-16.68-18.42c0-1.26,0-2.52,0-3.78q0-149,0-298c0-1.36,0-2.71,0-4.07a19.34,19.34,0,0,1,18.3-18.41c1.55-.07,3.1,0,4.65,0Z" transform="translate(-183.15 -86.92)"/><path class="cls-2" d="M852,211.08c8,1.25,13.46,5.61,16.13,13.27a25.59,25.59,0,0,1,1,5.41,32.16,32.16,0,0,1,0,3.77q0,154.33,0,308.65a36.23,36.23,0,0,1-.43,7.24,19.49,19.49,0,0,1-25.18,14.51,30.79,30.79,0,0,1-3-1.22l-100.83-46.4c-.79-.36-1.55-.77-2.43-1.2-.06-.78-.15-1.54-.18-2.3s0-1.36,0-2q0-122.79,0-245.58c0-1.44,0-2.88.06-4.43,1.25-.6,2.36-1.16,3.5-1.68l89.74-41.3,10.82-5a19.43,19.43,0,0,1,9.88-1.88Z" transform="translate(-183.15 -86.92)"/><path class="cls-8" d="M604.6,87.67l.78.24Z" transform="translate(-183.15 -86.92)"/><path class="cls-9" d="M606.4,186.53l.66-.06Z" transform="translate(-183.15 -86.92)"/><path class="cls-10" d="M637.8,186.45l.66.08Z" transform="translate(-183.15 -86.92)"/><path class="cls-10" d="M690.72,186.67l.79.11Z" transform="translate(-183.15 -86.92)"/><path class="cls-11" d="M224.95,187.21l.76-.18Z" transform="translate(-183.15 -86.92)"/><path class="cls-6" d="M700.56,188.19l.74.28Z" transform="translate(-183.15 -86.92)"/><path class="cls-12" d="M852,211.08l-.86-.16Z" transform="translate(-183.15 -86.92)"/><path class="cls-8" d="M736.63,227.69l.69,0C737.08,228,736.85,228.05,736.63,227.69Z" transform="translate(-183.15 -86.92)"/><path class="cls-13" d="M217.57,586.78l-.75-.32Z" transform="translate(-183.15 -86.92)"/><path class="cls-14" d="M224,588.4l-.76-.19Z" transform="translate(-183.15 -86.92)"/><path class="cls-14" d="M858.28,594l-.77.15Z" transform="translate(-183.15 -86.92)"/></svg>